<?xml version="1.0" encoding="UTF-8" standalone="no"?>
<!-- Created with Inkscape (http://www.inkscape.org/) -->

<svg
   width="137mm"
   height="137mm"
   viewBox="0 0 137 137"
   version="1.1"
   id="svg1"
   xml:space="preserve"
   inkscape:version="1.4.3 (0d15f75, 2025-12-25)"
   sodipodi:docname="active.svg"
   xmlns:inkscape="http://www.inkscape.org/namespaces/inkscape"
   xmlns:sodipodi="http://sodipodi.sourceforge.net/DTD/sodipodi-0.dtd"
   xmlns="http://www.w3.org/2000/svg"
   xmlns:svg="http://www.w3.org/2000/svg"><sodipodi:namedview
     id="namedview1"
     pagecolor="#505050"
     bordercolor="#ffffff"
     borderopacity="1"
     inkscape:showpageshadow="0"
     inkscape:pageopacity="0"
     inkscape:pagecheckerboard="1"
     inkscape:deskcolor="#505050"
     inkscape:document-units="mm"
     inkscape:zoom="0.74208053"
     inkscape:cx="205.5033"
     inkscape:cy="338.912"
     inkscape:window-width="1920"
     inkscape:window-height="1051"
     inkscape:window-x="-9"
     inkscape:window-y="-9"
     inkscape:window-maximized="1"
     inkscape:current-layer="layer1" /><defs
     id="defs1" /><g
     inkscape:label="Layer 1"
     inkscape:groupmode="layer"
     id="layer1"><path
       id="path2"
       style="fill:#ffffff;fill-opacity:1;stroke-width:1.09363"
       d="m 95.009532,9.2954362 c -0.457668,0 -3.925054,4.6899638 -7.704721,10.4219758 l -6.871689,10.42141 -5.389858,-6.047131 c -2.96443,-3.326011 -5.843016,-6.047132 -6.396396,-6.047132 -0.55339,0 -1.00597,4.157651 -1.00597,9.239113 v 9.238547 l 3.439517,-1.198689 c 2.579366,-0.899177 4.384037,-0.857492 7.216431,0.16672 l 3.777479,1.365408 3.589284,-3.478512 3.589282,-3.479079 1.304372,5.436201 1.304372,5.436201 5.661131,-1.507261 c 3.113744,-0.829031 5.784294,-1.513118 5.934674,-1.52026 0.15037,-0.0066 0.27354,0.717521 0.27354,1.610684 0,0.893162 -1.23662,5.890566 -2.74778,11.105245 -1.511164,5.21469 -2.574114,9.65466 -2.362344,9.866431 0.21178,0.211783 3.036264,1.286357 6.276584,2.38777 l 5.89115,2.002335 -2.98175,2.763595 c -1.64016,1.520068 -2.9823,3.568652 -2.9823,4.552303 0,0.983649 0.23631,1.788706 0.52502,1.788706 0.28871,0 5.67604,-2.256091 11.9722,-5.013466 6.29616,-2.757375 11.93814,-5.604782 12.5379,-6.327447 0.81543,-0.982545 -1.37659,-1.957757 -8.69148,-3.866207 -5.38013,-1.403683 -9.78165,-2.975145 -9.78165,-3.492643 0,-0.517487 2.25455,-5.995713 5.01007,-12.173383 2.75551,-6.177669 6.95905,-16.091577 9.3414,-22.031336 2.38236,-5.93976 4.04288,-11.0879451 3.69045,-11.4403804 -0.35243,-0.3524353 -7.26712,2.6616174 -15.36649,6.6981864 -8.09938,4.036569 -14.904224,7.339068 -15.121794,7.339068 -0.21757,0 -0.72303,-2.466584 -1.12296,-5.481412 -0.39993,-3.014828 -1.00786,-6.213565 -1.35127,-7.108488 -0.34342,-0.894923 -0.99874,-1.6270728 -1.456404,-1.6270728 z M 54.247915,38.909423 c -0.07679,0.0012 -0.128442,0.01544 -0.152026,0.04408 -0.188685,0.229116 0.08897,2.01645 0.617147,3.971325 0.528128,1.954876 1.384076,3.554244 1.901738,3.554244 0.517662,0 2.073182,-0.916791 3.457037,-2.037375 l 2.516058,-2.037372 -4.074183,-1.933951 c -1.960859,-0.930493 -3.728238,-1.569249 -4.265771,-1.560951 z m 19.772423,1.007666 c -2.031402,0 -4.827951,1.600875 -8.510631,4.871614 -3.175957,2.820698 -7.450478,5.408083 -10.152963,6.145468 -2.567104,0.700441 -6.934069,1.969232 -9.704798,2.819545 -2.770739,0.850303 -6.215792,2.802024 -7.655553,4.337544 -2.212712,2.359849 -3.258219,2.689995 -6.755833,2.132886 -2.389946,-0.380684 -5.161997,-0.113856 -6.561984,0.63184 -1.333154,0.710088 -3.031108,2.072018 -3.773523,3.026391 -0.742416,0.954373 -3.984587,5.672141 -7.205128,10.484142 -3.220542,4.812002 -6.39237,10.321109 -7.048017,12.242333 -0.66154,1.938482 -0.82966,4.859061 -0.378086,6.561985 0.634473,2.392724 2.071582,3.574494 6.524685,5.364427 3.141133,1.262581 7.045917,3.558236 8.67735,5.101626 1.631432,1.54339 4.689011,3.54623 6.794262,4.45057 2.10525,0.90433 4.360705,1.68426 5.012338,1.73333 0.720618,0.0543 1.195756,-2.37433 1.212816,-6.19916 0.02275,-5.101743 0.879256,-8.04293 4.538739,-15.584637 2.480871,-5.112752 6.009011,-11.654364 7.840361,-14.536852 1.831337,-2.882486 4.177226,-5.523076 5.212964,-5.867977 1.03574,-0.3449 4.963143,-2.022522 8.727649,-3.728311 3.795382,-1.719777 9.520223,-5.631763 12.850436,-8.781338 4.80921,-4.548348 6.00531,-6.367062 6.00531,-9.130037 0,-1.8977 -0.590485,-4.041305 -1.312285,-4.763105 -0.7218,-0.7218 -2.673988,-1.312284 -4.338109,-1.312284 z m 6.082171,15.724802 c -0.948808,0.03591 -3.121886,1.462499 -5.119151,3.402217 -2.203879,2.140378 -8.069657,5.856144 -13.035241,8.257443 -4.965569,2.401297 -9.615744,4.973754 -10.333247,5.71595 -0.717491,0.742197 -4.049062,6.559021 -7.403496,12.926732 l -6.09856,11.577712 v 8.247265 c 0,6.00429 0.446697,8.61832 1.643463,9.61155 0.90411,0.75035 8.409445,3.46881 16.678213,6.04091 8.268772,2.57211 16.141483,4.72514 17.494858,4.78459 l 2.460674,0.10794 v -10.78876 c 0,-9.13291 0.33559,-11.21544 2.187139,-13.56931 1.203001,-1.52937 2.187141,-3.750053 2.187141,-4.93491 0,-1.184845 0.766933,-2.790731 1.703935,-3.568372 0.937002,-0.777642 2.41892,-2.929365 3.293142,-4.781755 0.874224,-1.85238 2.873455,-5.691479 4.442664,-8.530976 1.569209,-2.839507 3.778096,-5.455942 4.908915,-5.814853 1.130818,-0.358909 2.056018,-1.26349 2.056018,-2.010246 0,-0.746758 -0.72247,-2.313187 -1.60559,-3.480776 -0.883119,-1.167587 -1.62151,-3.416032 -1.64064,-4.996512 -0.01912,-1.580468 -0.649703,-3.378156 -1.401579,-3.994496 -0.751875,-0.616341 -3.489304,-1.687936 -6.0833,-2.381553 -2.593997,-0.693628 -5.331177,-1.497133 -6.082171,-1.785317 -0.07041,-0.02702 -0.155035,-0.03819 -0.253187,-0.03447 z m 0.806472,4.733717 c 0.403183,-0.03517 0.87675,-0.03239 1.423053,0.0074 1.764408,0.128338 3.855846,0.481651 4.647814,0.785562 0.791969,0.303911 1.440009,1.306139 1.440009,2.227266 0,0.921136 -0.860981,1.62599 -1.913606,1.566037 -1.052626,-0.05994 -3.144629,-0.451475 -4.648379,-0.86977 -1.50375,-0.418283 -2.733642,-1.47646 -2.733642,-2.351598 0,-0.812888 0.575201,-1.259344 1.784751,-1.364843 z m -5.940317,4.665332 7.545915,2.319951 c 4.150252,1.276055 7.934059,2.554339 8.408903,2.840456 0.474844,0.286117 -0.936347,3.801 -3.136031,7.810971 -2.199684,4.009961 -6.52495,11.842971 -9.612112,17.406695 -3.325137,5.992597 -6.281926,10.085137 -7.253731,10.040497 -0.902251,-0.0415 -7.434031,-1.69298 -14.515375,-3.6701 -7.081342,-1.977108 -13.094644,-3.813708 -13.362465,-4.08153 -0.26782,-0.26782 1.006689,-3.322701 2.83198,-6.78861 1.825301,-3.46591 4.656238,-8.608457 6.290711,-11.427382 1.958637,-3.378036 4.457051,-5.870909 7.328897,-7.312508 2.39653,-1.203001 6.858166,-3.301429 9.915033,-4.663072 z m -7.036713,8.038728 c -1.729334,-0.0702 -3.680786,0.157924 -4.89309,0.618842 -1.61642,0.614558 -3.664798,2.246359 -4.551737,3.626584 -0.886939,1.380224 -1.737622,4.232368 -1.890435,6.337618 -0.152825,2.105251 0.06602,4.864543 0.486031,6.131905 0.420044,1.26736 1.859751,2.860363 3.199892,3.540113 1.340132,0.679739 4.583646,1.050682 7.20739,0.823993 2.921814,-0.252433 5.639964,-1.28208 7.014671,-2.656781 1.710559,-1.710557 2.19809,-3.481936 2.048112,-7.447014 -0.108237,-2.861489 -0.923574,-6.312261 -1.811878,-7.667988 -0.888305,-1.355727 -3.223549,-2.766702 -5.189229,-3.135466 -0.491424,-0.09219 -1.043283,-0.148404 -1.619727,-0.171806 z m -1.746886,2.302431 c 1.26979,-0.05755 2.872127,0.223772 4.0431,0.757305 1.561309,0.711377 3.127364,2.202893 3.48021,3.314618 0.352845,1.111715 0.352845,2.930821 0,4.042536 -0.352846,1.111725 -1.885681,2.587934 -3.406175,3.28071 -1.520494,0.692786 -3.615998,1.259725 -4.656855,1.259725 -1.04087,0 -2.986011,-0.765879 -4.322852,-1.702241 -1.336839,-0.936349 -2.430721,-2.82888 -2.430721,-4.205299 0,-1.376418 0.860981,-3.258926 1.913607,-4.183257 1.052625,-0.924331 2.965124,-2.000101 4.249381,-2.390595 0.321068,-0.09762 0.707041,-0.154318 1.130305,-0.173502 z m 42.247985,3.000395 c -0.91637,0.0099 -1.42138,0.253031 -1.42138,0.717178 0,0.648385 0.5669,2.423041 1.25973,3.943634 1.03068,2.262088 1.77644,2.638468 4.10132,2.069022 1.56279,-0.382795 4.56354,-1.2955 6.6688,-2.027766 l 3.82777,-1.330934 -4.43418,-1.21734 c -2.43878,-0.669491 -6.00641,-1.532006 -7.92852,-1.916431 -0.82556,-0.165108 -1.52373,-0.24325 -2.07354,-0.237363 z m -10.692704,0.04974 c -0.51945,0.01682 -1.00262,0.186729 -1.50217,0.50129 -0.991878,0.624576 -1.937887,1.821262 -2.102371,2.659042 -0.16448,0.837781 1.113449,2.146209 2.839901,2.907709 1.72643,0.761499 3.696334,2.607185 4.377104,4.101311 0.68077,1.494127 1.49428,2.716688 1.80792,2.716688 0.31365,0 0.57025,-2.203597 0.57025,-4.896481 0,-4.066447 -0.48192,-5.211822 -2.84442,-6.759788 -1.313234,-0.860459 -2.280454,-1.257805 -3.146214,-1.229771 z m -4.666459,7.656119 c -0.673215,0.02652 -1.251677,0.300736 -1.88761,0.828515 -0.920062,0.763587 -1.67285,1.9869 -1.67285,2.718947 0,0.732048 1.204623,1.879871 2.676561,2.550533 1.471937,0.670651 3.563368,2.581785 4.647808,4.24712 l 1.97182,3.028086 0.35887,-3.110033 c 0.19735,-1.710623 0.0603,-4.298331 -0.30405,-5.749861 -0.36431,-1.451529 -1.86449,-3.186554 -3.33383,-3.856034 -1.015592,-0.462735 -1.783505,-0.683787 -2.456719,-0.657273 z m -33.485846,2.251002 c 0.330798,-0.0074 0.754723,0.08416 1.217338,0.282012 1.052625,0.450174 3.210843,1.042991 4.795883,1.316805 1.585052,0.273813 3.922807,-0.05955 5.194881,-0.74035 1.445801,-0.773769 2.313169,-0.827756 2.313169,-0.144113 0,0.6015 -0.952465,1.603473 -2.11593,2.226135 -1.163454,0.622673 -3.254892,1.09867 -4.647814,1.057965 -1.39291,-0.04068 -3.639746,-0.60814 -4.993122,-1.260855 -1.353375,-0.652704 -2.460674,-1.656162 -2.460674,-2.230092 0,-0.324312 0.270958,-0.498039 0.696269,-0.507507 z m 29.299761,5.853849 c -0.549324,-0.01258 -1.082684,0.149636 -1.678503,0.468511 -1.138716,0.609419 -2.067174,1.705659 -2.063371,2.436373 0.0038,0.730713 1.527483,2.194155 3.385829,3.251892 1.858345,1.05774 3.6349,2.90286 3.948155,4.10074 0.313256,1.19788 1.004172,2.17808 1.535519,2.17808 0.531349,0 0.966414,-1.93281 0.966414,-4.29514 0,-3.325879 -0.643602,-4.801185 -2.851198,-6.537683 -1.367423,-1.075613 -2.327305,-1.581807 -3.242845,-1.602773 z m -45.872291,6.967766 c 0.290711,0 6.073519,1.49517 12.850436,3.32253 6.776906,1.82736 13.182999,3.58282 14.235625,3.90123 1.139569,0.34472 1.913605,1.65539 1.913605,3.23946 0,1.4632 -0.615228,2.63058 -1.367103,2.59461 -0.751876,-0.036 -7.395662,-2.02139 -14.764042,-4.41214 -11.115439,-3.60652 -13.396939,-4.71288 -13.396939,-6.49642 0,-1.18229 0.237697,-2.14927 0.528418,-2.14927 z m 41.445453,1.09357 c -1.389362,0 -3.035569,0.95191 -3.658232,2.11537 -0.622663,1.16344 -1.132,4.32209 -1.132,7.01917 0,2.69711 0.298949,5.68232 0.664054,6.63377 0.365104,0.95145 1.617953,1.72992 2.783941,1.72992 1.165988,0 3.327951,-1.20806 4.804361,-2.68447 1.887088,-1.88708 2.683908,-3.8916 2.683908,-6.74906 0,-2.24754 -0.808823,-4.95877 -1.809618,-6.06462 -0.995475,-1.09999 -2.947051,-2.00008 -4.336414,-2.00008 z m -41.973871,7.41196 3.611889,0.67761 c 1.98634,0.37265 8.50697,2.28906 14.490508,4.259 9.064141,2.98414 10.93729,3.98602 11.228449,6.00587 0.192218,1.33337 -0.0536,2.38552 -0.546503,2.33804 -0.492956,-0.0475 -4.341381,-1.24199 -8.551886,-2.65453 -4.210501,-1.41254 -10.485379,-3.3561 -13.944005,-4.31889 -5.083027,-1.41496 -6.288452,-2.18726 -6.288452,-4.02897 z" /></g></svg>
