<?xml version="1.0" encoding="UTF-8" standalone="no"?>
<svg
   width="128"
   height="128"
   viewBox="0 0 128 128"
   fill="none"
   version="1.1"
   id="svg3"
   sodipodi:docname="armor_debuff_color.svg"
   xml:space="preserve"
   inkscape:version="1.4.3 (0d15f75, 2025-12-25)"
   xmlns:inkscape="http://www.inkscape.org/namespaces/inkscape"
   xmlns:sodipodi="http://sodipodi.sourceforge.net/DTD/sodipodi-0.dtd"
   xmlns="http://www.w3.org/2000/svg"
   xmlns:svg="http://www.w3.org/2000/svg"><defs
     id="defs3" /><sodipodi:namedview
     id="namedview3"
     pagecolor="#505050"
     bordercolor="#ffffff"
     borderopacity="1"
     inkscape:showpageshadow="0"
     inkscape:pageopacity="0"
     inkscape:pagecheckerboard="1"
     inkscape:deskcolor="#505050"
     showgrid="false"
     inkscape:zoom="4.6017184"
     inkscape:cx="58.456424"
     inkscape:cy="74.211408"
     inkscape:window-width="1920"
     inkscape:window-height="1051"
     inkscape:window-x="-9"
     inkscape:window-y="-9"
     inkscape:window-maximized="1"
     inkscape:current-layer="svg3"><inkscape:grid
       id="grid3"
       units="px"
       originx="0"
       originy="0"
       spacingx="1"
       spacingy="1"
       empcolor="#0099e5"
       empopacity="0.30196078"
       color="#0099e5"
       opacity="0.14901961"
       empspacing="5"
       enabled="true"
       visible="false" /></sodipodi:namedview><g
     style="display:inline;fill:none"
     id="g5"
     transform="translate(11,-4)"
     inkscape:label="shield"><path
       id="path1-5"
       d="m 64,8 c 0,0 -21,14.000312 -49,26.320312 0,10.304108 1.243036,19.49907 3.333984,27.677735 1.601835,0.05405 3.180129,0.594493 4.34961,1.632812 3.657597,3.729922 7.228532,7.532535 10.835937,11.304688 L 49.949219,59.816406 c 1.906112,-2.018347 4.691689,-3.407727 7.632812,-3.433594 3.240352,-0.09329 6.480641,1.380248 8.355469,3.816407 2.749216,3.353187 2.439593,8.458729 -0.662109,11.53125 -1.694243,1.560983 -3.389561,3.12277 -5.083985,4.683593 0.301828,0.108707 0.597582,0.234759 0.88086,0.378907 3.004927,1.533828 4.354985,5.316732 2.8125,8.164062 -3.522849,5.581444 -7.145009,11.108284 -10.720704,16.662109 2.617296,5.23474 5.247387,10.46535 7.847657,15.70703 0.298606,0.50939 0.573753,1.04493 0.792969,1.59766 C 63.200484,119.65699 64,120 64,120 64,120 113,99.000313 113,34.320312 85,22.000312 64,8 64,8 Z"
       style="display:inline;fill:#00ff99;fill-opacity:1;opacity:0.5" /><path
       id="path2-5"
       d="M 64,8 C 63.9914,8.00573 42.9943,22.002812 15,34.320312 l 0.0098,1.507813 c 0.0027,0.2311 0.0058,0.461506 0.0098,0.691406 0.0039,0.2219 0.0067,0.443263 0.01172,0.664063 0.0418,1.8407 0.124541,3.645862 0.244141,5.414062 0.1065,1.5754 0.245456,3.120072 0.410156,4.638672 0.115,1.0605 0.240912,2.107425 0.382812,3.140625 0.0829,0.603 0.171972,1.203075 0.263672,1.796875 0.1631,1.0558 0.339197,2.096247 0.529297,3.123047 0.1096,0.5914 0.223597,1.177866 0.341797,1.759766 0.0389,0.1915 0.07739,0.383718 0.117187,0.574218 0.0401,0.1917 0.08205,0.381666 0.123047,0.572266 0.276936,1.288672 0.573457,2.553393 0.890625,3.794922 1.601706,0.05412 3.18022,0.594574 4.34961,1.632812 3.657597,3.729922 7.228532,7.532535 10.835937,11.304688 L 49.949219,59.816406 c 1.906112,-2.018347 4.691689,-3.407727 7.632812,-3.433594 2.302684,-0.06629 4.605337,0.657682 6.417969,1.957032 v -38.5 c 2.3511,1.4495 5.392566,3.281734 9.009766,5.365234 7.6686,4.4171 17.974547,9.994975 29.810544,15.484375 -1.459,25.9339 -11.706944,43.096485 -21.685544,53.958985 -5.4508,5.933602 -10.890922,10.056922 -14.919922,12.669922 -0.8002,0.519 -1.542744,0.976 -2.214844,1.375 V 84.732422 c -0.03644,0.07578 -0.07485,0.150058 -0.115234,0.224609 -3.522849,5.581444 -7.145009,11.108284 -10.720704,16.662109 2.617296,5.23474 5.247387,10.46535 7.847657,15.70703 0.298491,0.50919 0.573795,1.04516 0.792969,1.59766 0.713523,0.37464 1.271525,0.64681 1.646484,0.82422 L 64,120 c 0,0 48.23623,-20.673075 48.99023,-84.171875 L 113,34.320312 C 85,22.000312 64,8 64,8 Z m 0,64.90625 c -1.269482,1.169563 -2.539288,2.338587 -3.808594,3.507812 0.301828,0.108707 0.597582,0.234759 0.88086,0.378907 1.343705,0.685878 2.356506,1.820526 2.927734,3.121093 z"
       style="display:inline;fill:#00ff99;fill-opacity:1" /></g><g
     style="display:inline;fill:#000000;fill-opacity:1;stroke-width:0.99935784;stroke-dasharray:none"
     id="g3"
     transform="matrix(0.6247991,0,0,0.57500445,-2.7849148,55.665828)"
     inkscape:label="buffer" /><g
     style="display:inline;fill:none"
     id="g9"
     transform="matrix(0.6247991,0,0,0.57500445,-2.7849148,55.665828)"
     inkscape:label="star"><path
       d="m 15.6246,117.769 c -2.3432,2.343 -6.14234,2.343 -8.48549,0 -2.34315,-2.343 -2.34298,-6.142 1.7e-4,-8.485 L 33.3944,83.0284 7.7465,68.6545 C 7.02347,68.2493 7.07893,67.1909 7.84036,66.8635 L 42.0994,52.1321 c 0.3023,-0.13 0.5213,-0.4004 0.5856,-0.7232 l 7.2867,-36.5732 c 0.1619,-0.8129 1.1856,-1.0872 1.7323,-0.4642 L 75.2355,41.1873 110.377,6.04597 c 2.343,-2.34269 6.142,-2.34254 8.485,4.5e-4 2.343,2.343 2.342,6.14208 0,8.48528 z"
       fill="#ce90ff"
       id="path8"
       style="display:inline" /><path
       d="m 44.2086,124.801 -2.0515,-22.251 63.1349,-63.1346 8.913,-1.0521 c 0.823,-0.0972 1.4,0.7917 0.976,1.5041 L 96.1243,71.9222 c -0.1682,0.283 -0.1865,0.6305 -0.0488,0.9295 l 15.6025,33.8713 c 0.346,0.753 -0.32,1.576 -1.129,1.394 L 74.1741,99.8977 c -0.3211,-0.0725 -0.6572,0.0176 -0.899,0.2413 L 45.883,125.444 c -0.6089,0.562 -1.5983,0.183 -1.6744,-0.643 z"
       fill="#ce90ff"
       id="path9"
       style="display:inline" /></g></svg>
