<?xml version="1.0" encoding="UTF-8" standalone="no"?>
<!-- Created with Inkscape (http://www.inkscape.org/) -->

<svg
   width="137mm"
   height="137mm"
   viewBox="0 0 137 137"
   version="1.1"
   id="svg1"
   xml:space="preserve"
   inkscape:version="1.4.3 (0d15f75, 2025-12-25)"
   sodipodi:docname="charge.svg"
   xmlns:inkscape="http://www.inkscape.org/namespaces/inkscape"
   xmlns:sodipodi="http://sodipodi.sourceforge.net/DTD/sodipodi-0.dtd"
   xmlns="http://www.w3.org/2000/svg"
   xmlns:svg="http://www.w3.org/2000/svg"><sodipodi:namedview
     id="namedview1"
     pagecolor="#505050"
     bordercolor="#ffffff"
     borderopacity="1"
     inkscape:showpageshadow="0"
     inkscape:pageopacity="0"
     inkscape:pagecheckerboard="1"
     inkscape:deskcolor="#505050"
     inkscape:document-units="mm"
     inkscape:zoom="1.0494604"
     inkscape:cx="337.79264"
     inkscape:cy="286.33763"
     inkscape:window-width="1920"
     inkscape:window-height="1051"
     inkscape:window-x="-9"
     inkscape:window-y="-9"
     inkscape:window-maximized="1"
     inkscape:current-layer="layer1" /><defs
     id="defs1" /><g
     inkscape:label="Layer 1"
     inkscape:groupmode="layer"
     id="layer1"><path
       style="fill:#ce90ff;fill-opacity:1;stroke-width:1.13559"
       d="m 59.131378,116.14647 -2.555079,-2.72896 v -6.33797 -6.33797 l 2.787358,-2.787363 2.78736,-2.787358 h 5.729569 5.729572 v 1.13559 1.135591 h 2.271181 2.271181 v 2.271181 2.271179 h 1.13559 1.135591 v 5.7296 5.7296 l -2.787358,2.78738 -2.78736,2.78737 -6.581262,-0.0695 -6.581264,-0.0694 z M 0.93236194,104.81938 V 95.166849 H 2.0679525 3.2035431 V 91.760077 88.353305 H 4.3391336 5.4747242 V 85.514329 82.675352 H 6.6103147 7.7459053 V 80.404171 78.13299 h 1.1355905 1.1355902 v -2.020489 -2.020489 l 2.271181,-1.636975 2.271182,-1.636974 V 68.229779 65.641494 H 15.807224 17.055 l 3.182401,-3.406772 3.182402,-3.406771 h 1.564879 1.564879 l 1.636974,-2.271181 1.636975,-2.271181 h 2.588284 2.588285 v -1.135591 -1.135591 h 2.271181 2.271181 v -1.703385 -1.703386 h 2.271181 2.271181 v -1.135591 -1.13559 h 3.974567 3.974567 v -1.135591 -1.13559 H 68.5 84.966063 v 1.13559 1.135591 h 3.974567 3.974567 v 1.13559 1.135591 h 2.271181 2.271181 v 1.703386 1.703385 h 2.271181 2.27118 v 0.605648 0.605649 l -3.936713,3.936714 -3.936713,3.936714 h -1.74124 -1.741238 v -1.135591 -1.13559 H 86.669449 82.694882 V 57.69236 56.55677 H 78.15252 73.610158 v 2.92009 2.92009 l -1.622272,1.622272 -1.622273,1.622272 H 66.877728 63.389842 V 61.099132 56.55677 H 58.84748 54.305118 v 1.13559 1.135591 h -3.974567 -3.974567 v 1.13559 1.135591 h -2.271181 -2.271181 v 1.13559 1.135591 h -1.7845 -1.784499 l -1.622273,1.622272 -1.622271,1.622273 v 0.966011 0.966013 l 2.271181,1.636974 2.271181,1.636975 v 1.925857 1.925856 l 1.409348,0.469783 1.40935,0.469783 -1.896031,1.896031 -1.896031,1.89603 H 34.362699 30.15632 l -2.063754,-2.379527 -2.063754,-2.379529 -2.895705,2.895706 -2.895706,2.895706 v 1.755002 1.755005 h -1.13559 -1.135591 v 2.838976 2.838976 h -1.703386 -1.703385 v 3.406772 3.406772 h -1.135591 -1.135591 v 3.97457 3.97458 h 6.894658 6.894656 l 1.622273,1.62228 1.622272,1.62228 v 1.29782 1.29784 l -1.622272,1.62227 -1.622273,1.62228 H 13.504972 0.93236194 Z m 108.16499806,7.95391 -1.41949,-1.61227 v -2.88692 -2.88692 h 8.51693 8.51693 v -3.97458 -3.97457 h -1.13559 -1.13559 v -3.406772 -3.406772 h -1.70338 -1.70339 V 87.78551 84.946534 h -1.13559 -1.13559 v -2.920091 -2.920089 l 1.62227,-1.622273 1.62227,-1.622272 h 1.21671 1.2167 v -1.13559 -1.135591 h 2.27118 2.27118 v 2.271181 2.271181 h 1.13559 1.13559 v 2.271181 2.271181 h 1.1356 1.13559 v 2.838977 2.838976 h 1.13559 1.13559 v 3.406772 3.406772 h 1.13559 1.13559 v 9.652531 9.65257 l -12.7754,-0.0432 -12.77539,-0.0432 z M 82.694882,94.031258 V 92.895667 H 80.423701 78.15252 v -2.271181 -2.271181 h 1.13559 1.135591 v -1.187209 -1.187207 l 2.787358,-2.78736 2.787359,-2.787358 h 0.6441 0.644099 l 6.221062,-6.221061 6.221061,-6.221062 v -0.673594 -0.673596 l 1.62227,-1.622273 1.62227,-1.622272 h 0.96602 0.96601 l 1.63697,-2.271181 1.63698,-2.271181 h 1.49054 1.49056 l 3.9367,-3.936714 3.93672,-3.936714 v -1.173444 -1.173443 h 1.24778 1.24777 l 3.1824,-3.406772 3.1824,-3.406772 h 2.46449 2.46448 l 1.62227,1.622272 1.62227,1.622273 v 2.941119 2.94112 l -7.36031,7.36031 -7.36031,7.360308 h -1.15662 -1.15662 v 1.703386 1.703386 h -1.13559 -1.13559 v 1.755004 1.755003 l -2.78737,2.787359 -2.78735,2.787358 h -1.50431 -1.50431 l -1.63698,2.271181 -1.63697,2.271181 h -2.1016 -2.10161 l -1.622269,1.622272 -1.622272,1.622273 v 0.686762 0.686762 l -3.936714,3.936713 -3.936713,3.936715 h -3.444626 -3.444624 z"
       id="path12" /></g></svg>
