<svg width="128" height="128" viewBox="0 0 128 128" fill="currentColor" xmlns="http://www.w3.org/2000/svg">
<path d="M27.4815 24.52C27.4015 24.52 27.3215 24.52 27.2415 24.52C16.1015 24.52 6.96146 33.09 6.06146 44C5.98146 44.97 6.62146 45.77 7.39146 45.77H8.80146C10.3515 45.77 11.2015 48.91 10.6915 52.79L4.03146 103.36C3.77146 105.3 5.15146 106.87 7.11146 106.87H39.8715C41.8315 106.87 43.6215 105.3 43.8715 103.36L45.1615 93.53C45.6715 89.65 49.2615 86.51 53.1715 86.51H62.0015C73.7415 86.51 83.2515 76.99 83.2515 65.26L85.0215 59.06C86.0015 55.64 90.7615 52.86 95.6515 52.86H115.131C117.091 52.86 118.671 51.27 118.671 49.32V42.24H121.331C122.801 42.24 123.991 40.65 123.991 38.7V31.62C123.991 29.66 122.801 28.08 121.331 28.08H118.671V26.31C118.671 25.33 117.481 24.54 116.011 24.54H113.351L110.691 21H100.061L97.4015 24.54H34.5615C34.5615 24.54 32.7915 21 31.0215 21C29.2515 21 27.4815 24.54 27.4815 24.54V24.52ZM62.0115 77.65C55.1615 77.65 49.6115 72.1 49.6115 65.25C49.6115 58.4 55.1615 52.85 62.0115 52.85C68.8615 52.85 74.4115 58.4 74.4115 65.25C74.4115 72.1 68.8615 77.65 62.0115 77.65Z" fill="#FF9900"/>
</svg>