<svg width="262" height="256" viewBox="0 0 262 256" fill="none" xmlns="http://www.w3.org/2000/svg">
<path fill-rule="evenodd" clip-rule="evenodd" d="M135.919 2.99383C133.796 -0.997949 128.204 -0.997941 126.081 2.99384L87.5549 75.4109C86.7487 76.9255 85.3217 77.9891 83.6671 78.3065L4.57705 93.4897C0.217452 94.3268 -1.51034 99.7775 1.53678 103.082L56.8162 163.021C57.9726 164.274 58.5179 165.995 58.3013 167.706L47.947 249.507C47.3763 254.016 51.8997 257.384 55.9066 255.435L128.597 220.062C130.118 219.322 131.882 219.322 133.403 220.062L206.094 255.435C210.101 257.384 214.624 254.016 214.053 249.507L203.699 167.706C203.482 165.995 204.028 164.274 205.184 163.021L260.463 103.082C263.51 99.7775 261.782 94.3268 257.423 93.4897L178.333 78.3065C176.679 77.9891 175.251 76.9255 174.446 75.4109L135.919 2.99383ZM125.74 44.0043C127.539 38.9877 134.461 38.9877 136.259 44.0043L152.936 90.5147C152.89 90.9526 152.927 91.4094 153.057 91.867L167.5 142.507C168.212 145.003 171.232 145.869 173.104 144.114L187.418 130.694C188.3 129.867 188.699 128.628 188.468 127.425L183.874 103.422H220.634C225.917 103.422 228.265 110.229 224.157 113.633L183.955 146.95C183.404 147.036 182.863 147.262 182.38 147.644L141.636 179.879C139.627 181.468 139.94 184.666 142.217 185.814L159.622 194.592C160.696 195.133 161.966 195.062 162.976 194.403L181.509 182.317L191.504 218.295C192.95 223.499 187.216 227.678 182.896 224.57L134.228 189.55C133.571 189.079 132.84 188.766 132.085 188.615L98.4552 165.252C96.3254 163.773 93.4248 165.136 93.127 167.755L90.8997 187.358C90.7615 188.576 91.2522 189.779 92.1951 190.534L108.446 203.543L79.3905 224.561C75.0814 227.677 69.341 223.522 70.7646 218.317L85.454 164.601C85.5412 164.44 85.6114 164.265 85.6602 164.078L98.5667 114.852C98.985 113.258 97.6748 111.745 96.08 111.982L74.6528 115.172C73.8164 115.297 73.1195 115.893 72.8503 116.714L66.0393 137.491L38.1708 115.017C34.0355 111.682 36.2587 104.871 41.519 104.759L97.3792 103.572C97.5462 103.593 97.7169 103.602 97.8898 103.597L142.688 102.406C145.125 102.341 146.719 99.7623 145.735 97.4752L137.614 78.5891C137.066 77.3141 135.836 76.4922 134.477 76.4922H114.092L125.74 44.0043Z" fill="#CE90FF"/>
</svg>