<svg width="128" height="128" viewBox="0 0 128 128" fill="none" xmlns="http://www.w3.org/2000/svg">
<path d="M71.7395 89.1701C69.4695 92.0501 65.9595 93.9001 62.0095 93.9001C55.1595 93.9001 49.6095 88.3501 49.6095 81.5001C49.6095 77.5501 51.4595 74.0401 54.3395 71.7701L23.6495 41.0801C14.1895 42.6901 6.84951 50.5301 6.04951 60.2501C5.96951 61.2201 6.60951 62.0201 7.37951 62.0201H8.78951C10.3395 62.0201 11.1895 65.1601 10.6795 69.0401L4.02951 119.61C3.76951 121.55 5.14951 123.12 7.10951 123.12H39.8695C41.8295 123.12 43.6195 121.55 43.8695 119.61L45.1595 109.78C45.6695 105.9 49.2595 102.76 53.1695 102.76H61.9995C68.3895 102.76 74.1095 99.9201 78.0095 95.4601L71.7295 89.1801L71.7395 89.1701Z" fill="#FF410D"/>
<path d="M92.8397 69.4102C93.7597 69.2102 94.7097 69.1002 95.6697 69.1002H115.15C117.11 69.1002 118.69 67.5102 118.69 65.5602V58.4802H121.35C122.82 58.4802 124.01 56.8902 124.01 54.9402V47.8602C124.01 45.9002 122.82 44.3202 121.35 44.3202H118.69V42.5502C118.69 41.5702 117.5 40.7802 116.03 40.7802H113.37L110.71 37.2402H100.08L97.4197 40.7802H64.1797L92.8197 69.4202L92.8397 69.4102Z" fill="#FF410D"/>
<path d="M117.56 121C115.91 121 114.26 120.37 113 119.11L9.89 16C7.37 13.48 7.37 9.4 9.89 6.89C12.41 4.37 16.49 4.37 19 6.89L122.11 110C124.63 112.52 124.63 116.6 122.11 119.11C120.85 120.37 119.2 121 117.55 121H117.56Z" fill="#FF410D"/>
</svg>