<svg width="128" height="128" viewBox="0 0 128 128" fill="none" xmlns="http://www.w3.org/2000/svg">
<path d="M91.4697 4L92.2227 4.00977C107.982 4.43114 120.619 18.0494 120.619 34.8818C120.619 35.332 120.61 35.7799 120.595 36.2256C120.591 36.3315 120.586 36.4373 120.582 36.543C120.578 36.6397 120.575 36.7365 120.57 36.833C120.565 36.9396 120.559 37.046 120.553 37.1523C120.545 37.2844 120.536 37.4162 120.527 37.5479C120.524 37.5992 120.522 37.6508 120.519 37.7021C120.109 43.4398 118.466 48.8162 115.944 53.9727C113.772 52.4333 111.43 51.1159 108.953 50.0547C110.895 45.9889 112.114 41.9174 112.492 37.7021H12.126C13.1183 48.7623 19.9048 58.8325 30.3291 70.4072C33.2295 73.6277 36.4466 76.9891 39.8018 80.4941C47.2823 88.3088 55.4474 96.8387 62.3096 106.119C62.3262 106.097 62.3428 106.074 62.3594 106.052C63.8903 108.348 65.6647 110.469 67.6455 112.376C66.7484 113.632 65.8769 114.905 65.0342 116.196C63.4725 118.601 61.1467 118.601 59.585 116.196C52.5045 105.349 43.3594 95.7957 34.5391 86.582C19.4444 70.8142 5.30204 56.0395 4.08594 37.4717C4.07188 37.257 4.05941 37.0419 4.04883 36.8262C4.04479 36.7439 4.04064 36.6615 4.03711 36.5791C4.02809 36.3683 4.02129 36.1571 4.01562 35.9453C4.01381 35.8776 4.01123 35.81 4.00977 35.7422C4.00358 35.4563 4 35.1695 4 34.8818C4 33.3347 4.10918 31.8143 4.31641 30.3281C6.39336 15.4329 18.503 4 33.1494 4L33.9756 4.0166C38.1026 4.16157 42.1523 5.2028 45.8428 7.07031C49.7793 9.06235 53.2003 11.9407 55.835 15.4795C56.3051 16.0949 56.739 16.6688 57.1416 17.2012C57.5611 17.756 57.9478 18.2648 58.3047 18.7295C60.1465 21.1276 61.2273 22.3281 62.3096 22.3281C62.3542 22.3281 62.3987 22.3254 62.4434 22.3213C63.4822 22.2265 64.5478 21.0285 66.3135 18.7295C66.6705 18.2646 67.0579 17.7561 67.4775 17.2012C67.8801 16.6688 68.314 16.0949 68.7842 15.4795C71.4189 11.9407 74.8398 9.06235 78.7764 7.07031C82.7129 5.07832 87.058 4.02698 91.4697 4Z" fill="#FF410D"/>
<path fill-rule="evenodd" clip-rule="evenodd" d="M94 117C111.671 117 126 102.671 126 85C126 67.329 111.671 53 94 53C76.329 53 62 67.329 62 85C62 102.671 76.329 117 94 117ZM98.4909 65.0104C98.4909 62.5248 96.4856 60.5196 94 60.5196C91.5144 60.5196 89.5091 62.5248 89.5091 65.0104V85C89.5091 87.4856 91.5144 89.4909 94 89.4909H113.99C116.475 89.4909 118.48 87.4856 118.48 85C118.48 82.5144 116.475 80.5091 113.99 80.5091H98.4909V65.0104Z" fill="#CE90FF"/>
</svg>