<svg width="128" height="128" viewBox="0 0 128 128" fill="none" xmlns="http://www.w3.org/2000/svg">
<path d="M65.3975 79C66.5676 80.8354 68.399 82.2309 70.6084 82.8262L87.5664 87.3682C87.2675 87.6805 86.9687 87.9945 86.6689 88.3076C78.1986 97.1557 69.4176 106.328 62.6221 116.741C61.1114 119.051 58.8886 119.051 57.3779 116.741C50.5786 106.324 41.7963 97.1506 33.3262 88.3027C30.3316 85.1746 27.3757 82.0872 24.5605 79H65.3975Z" fill="#FF410D"/>
<path d="M87.9971 9C103.355 9 115.819 22.09 115.996 38.3057H109.645V37.9395C109.645 33.3338 105.912 29.6008 101.307 29.6006H88.7549C85.1558 29.6006 81.8203 31.5163 80.0146 34.6475L80.0127 34.6523L77.501 39H4.00195C4.00092 38.8854 4 38.7702 4 38.6553C4.00025 22.2786 16.5348 9 32.0029 9C40.8042 9.00006 48.6529 13.3022 53.7871 20.0234H53.7764C57.132 24.4136 58.5662 26.6088 59.999 26.6084C61.4315 26.6077 62.8636 24.4125 66.2129 20.0234C71.3471 13.3022 79.1958 9.00006 87.9971 9Z" fill="#FF410D"/>
<path d="M91.4624 70.3687C90.3411 70.219 89.314 71.0098 89.1642 72.1311L89.1623 72.1239C89.1521 72.2152 89.1491 72.3045 89.1461 72.3938C89.1442 73.4063 89.892 74.2871 90.9248 74.4221L106.759 76.5052C107.397 76.5882 107.54 77.0231 107.042 77.4335C102.461 81.2466 95.8765 83.0226 90.2588 81.515L72.2629 76.6906C71.0113 76.3565 70.0001 75.0383 70 73.7454L70.0018 50.0579C70.0017 48.7651 71.0488 47.7188 72.3417 47.7187L77.998 47.7191C78.6454 47.7227 79.4311 47.2659 79.7543 46.706L85.2313 37.2196C85.8778 36.0999 87.4511 35.1935 88.7439 35.1934L101.434 35.1945C102.727 35.1943 103.773 36.2415 103.773 37.5343L103.773 51.0017C103.772 51.6446 103.248 52.1736 102.601 52.17L99.8644 52.1683C99.2189 52.1719 98.4216 51.7238 98.0851 51.1714L93.0787 42.9703C92.4891 42.0047 91.2263 41.7005 90.2607 42.2901C89.6298 42.6785 89.2787 43.3497 89.2795 44.0421C89.2812 44.4072 89.3793 44.7734 89.5806 45.1081L92.0549 49.1586L85.4138 60.6615C85.2272 60.9847 85.1376 61.3396 85.138 61.6858C85.1427 62.3926 85.5086 63.0833 86.1641 63.4617C87.1473 64.0294 88.3993 63.6901 88.9643 62.7114L94.4886 53.1432L95.7986 55.2894C96.1694 55.898 96.8302 56.2673 97.546 56.2679L119.333 56.271C119.983 56.27 120.243 56.7236 119.92 57.2835L117.457 61.5487C117.134 62.1086 116.349 62.523 115.704 62.4726L96.7071 61.0639C95.5796 60.9773 94.5985 61.8251 94.512 62.9526C94.5118 62.9659 94.5113 62.979 94.5107 62.992C94.5106 62.9954 94.5104 62.9988 94.5102 63.0022C94.51 63.0068 94.5098 63.0114 94.5095 63.016C94.5079 63.0474 94.5064 63.0779 94.5074 63.1077C94.5073 64.1698 95.3293 65.0692 96.4053 65.1503L113.433 66.4172C114.077 66.4677 114.34 66.9591 114.016 67.519L111.48 71.9117C111.157 72.4716 110.376 72.858 109.733 72.7723L91.4624 70.3687Z" fill="#FF9900"/>
<path d="M123.4 51.1295C123.148 51.7243 122.35 52.1803 121.703 52.1768L107.878 52.1759L107.877 43.9149L118.281 43.913C123.044 43.914 125.124 47.1237 123.4 51.1295Z" fill="#FF9900"/>
<path d="M61 57C62.1046 57 63 57.8954 63 59C63 60.1046 62.1046 61 61 61H7C5.89543 61 5 60.1046 5 59C5 57.8954 5.89543 57 7 57H61Z" fill="#FF9900"/>
</svg>
