<?xml version="1.0" encoding="UTF-8" standalone="no"?>
<svg
   width="128"
   height="128"
   viewBox="0 0 128 128"
   fill="none"
   version="1.1"
   id="svg1"
   sodipodi:docname="fire_rate_plus.svg"
   xml:space="preserve"
   inkscape:version="1.4.3 (0d15f75, 2025-12-25)"
   xmlns:inkscape="http://www.inkscape.org/namespaces/inkscape"
   xmlns:sodipodi="http://sodipodi.sourceforge.net/DTD/sodipodi-0.dtd"
   xmlns="http://www.w3.org/2000/svg"
   xmlns:svg="http://www.w3.org/2000/svg"><defs
     id="defs1" /><sodipodi:namedview
     id="namedview1"
     pagecolor="#505050"
     bordercolor="#ffffff"
     borderopacity="1"
     inkscape:showpageshadow="0"
     inkscape:pageopacity="0"
     inkscape:pagecheckerboard="1"
     inkscape:deskcolor="#505050"
     inkscape:zoom="2.4786469"
     inkscape:cx="-17.953344"
     inkscape:cy="81.294355"
     inkscape:window-width="1920"
     inkscape:window-height="1051"
     inkscape:window-x="-9"
     inkscape:window-y="-9"
     inkscape:window-maximized="1"
     inkscape:current-layer="svg1"
     showguides="true" /><g
     style="fill:currentColor"
     id="g1"
     transform="translate(-170,-49)"><path
       style="fill:#ff9900;fill-opacity:1"
       d="m 217,154 -15,-15 h 18 l 15,15 -15,16 h -18 z m 31.5,0 -15,-15 h 18 l 15,15 -15,16 h -18 z m 0.1699,-42.99999 C 268.9999,111.00001 273,119 273,119 c 0,0 -4.0001,8 -24.3301,8 H 221 v -15.99999 z m -33.25,5.49999 c 1.1046,0 2,0.8954 2,2 0,1.1046 -0.8954,2 -2,2 h -32 c -1.1045,0 -2,-0.8954 -2,-2 0,-1.1046 0.8955,-2 2,-2 z M 268.6699,84 C 289,83.999999 293,92 293,92 c 0,0 -4,7.999996 -24.3301,7.999996 H 241 V 84.000001 Z M 235,89.5 c 1.1046,0 2,0.8954 2,2 0,1.104601 -0.8954,2 -2,2 h -52 c -1.1046,0 -2,-0.895399 -2,-2 0,-1.1046 0.8954,-2 2,-2 z M 248.6699,57.000001 C 268.9999,57.000001 273,65 273,65 c 0,0 -4.0001,8 -24.3301,8 H 221 V 57.000001 Z m -33.6699,6 c 1.1046,0 2,0.8954 2,1.999999 0,1.104601 -0.8954,2 -2,2 h -32 c -1.1046,0 -2,-0.895399 -2,-2 0,-1.104599 0.8954,-1.999999 2,-1.999999 z"
       id="path2"
       sodipodi:nodetypes="ccccccccccccccscsccssssssssscsccssssssssscsccssssssss" /></g></svg>
