<?xml version="1.0" encoding="UTF-8" standalone="no"?>
<svg
   width="128"
   height="128"
   viewBox="0 0 128 128"
   fill="none"
   version="1.1"
   id="svg1"
   sodipodi:docname="fire_rate_jammer.svg"
   xml:space="preserve"
   inkscape:version="1.4.3 (0d15f75, 2025-12-25)"
   xmlns:inkscape="http://www.inkscape.org/namespaces/inkscape"
   xmlns:sodipodi="http://sodipodi.sourceforge.net/DTD/sodipodi-0.dtd"
   xmlns="http://www.w3.org/2000/svg"
   xmlns:svg="http://www.w3.org/2000/svg"><defs
     id="defs1" /><sodipodi:namedview
     id="namedview1"
     pagecolor="#505050"
     bordercolor="#ffffff"
     borderopacity="1"
     inkscape:showpageshadow="0"
     inkscape:pageopacity="0"
     inkscape:pagecheckerboard="1"
     inkscape:deskcolor="#505050"
     inkscape:zoom="3.2544088"
     inkscape:cx="47.166785"
     inkscape:cy="74.821578"
     inkscape:window-width="1920"
     inkscape:window-height="1051"
     inkscape:window-x="-9"
     inkscape:window-y="-9"
     inkscape:window-maximized="1"
     inkscape:current-layer="svg1"
     showguides="true" /><path
     style="fill:#ff9900;fill-opacity:1;stroke-width:1.0851"
     d="m 5.5665689,91.215939 11.2986241,1.648519 c 3.559457,0.519341 7.734089,2.648963 9.451304,3.871729 1.717215,1.222766 3.122209,2.889153 3.122209,3.703083 0,0.81392 -1.404994,2.48031 -3.122209,3.70307 -1.717215,1.22277 -5.891847,3.35239 -9.451304,3.87173 l -11.2986241,1.64852 z m 0,-19.531749 v -8.933187 l 10.6689881,0.428523 c 8.745108,0.35125 11.631234,0.923713 16.005183,3.174625 4.128812,2.124761 5.336195,3.330751 5.336195,5.330039 0,1.999288 -1.207383,3.205278 -5.336195,5.330038 -4.373949,2.250913 -7.260075,2.823375 -16.005183,3.174626 L 5.5665689,80.617377 Z M 28.353609,42.386567 v -8.903932 l 13.323517,0.382851 c 11.728983,0.337033 13.96911,0.715215 18.717926,3.159997 4.181442,2.152688 5.394409,3.358161 5.394409,5.361084 0,2.002922 -1.212967,3.208395 -5.394409,5.361083 -4.748816,2.444782 -6.988943,2.822965 -18.717926,3.159997 L 28.353609,51.290498 Z M 76.097884,19.599526 v -8.903932 l 13.323517,0.382852 c 11.728979,0.337032 13.969109,0.715215 18.717929,3.159997 4.18144,2.152687 5.39441,3.358161 5.39441,5.361083 0,2.002922 -1.21297,3.208396 -5.39441,5.361083 -4.74882,2.444783 -6.98895,2.822965 -18.717929,3.159997 l -13.323517,0.382852 z m -6.510583,-2.170194 c 1.198599,0 2.170195,0.971596 2.170195,2.170194 0,1.198598 -0.971596,2.170194 -2.170195,2.170194 H 7.736763 c -1.198598,0 -2.1701941,-0.971596 -2.1701941,-2.170194 0,-1.198598 0.9715961,-2.170194 2.1701941,-2.170194 z m -47.744275,22.78704 c 1.198599,0 2.170195,0.971596 2.170195,2.170195 0,1.198598 -0.971596,2.170194 -2.170195,2.170194 H 7.736763 c -1.198598,0 -2.1701941,-0.971596 -2.1701941,-2.170194 0,-1.198599 0.9715961,-2.170195 2.1701941,-2.170195 z"
     id="path1"
     sodipodi:nodetypes="csssssccccsssssccccsssssccccsssssccssssssssssssss" /><path
     d="m 101.03588,124.4629 c -1.91915,-1.22921 -4.48269,-3.84215 -5.696762,-5.80656 -1.487885,-2.40746 -2.207392,-5.43343 -2.207392,-9.28351 0,-3.86481 0.719474,-6.87602 2.224894,-9.31183 1.223686,-1.97997 3.84487,-4.601151 5.82483,-5.82484 2.43582,-1.505419 5.44702,-2.224892 9.31183,-2.224892 3.8648,0 6.87601,0.719473 9.31182,2.224892 1.97997,1.223689 4.60115,3.84487 5.82484,5.82484 1.50542,2.43581 2.22489,5.44702 2.22489,9.31183 0,3.8648 -0.71947,6.87601 -2.22489,9.31182 -1.22369,1.97997 -3.84487,4.60115 -5.82484,5.82484 -2.47742,1.53113 -5.42095,2.21919 -9.4399,2.20661 -4.01917,-0.0126 -6.92787,-0.71508 -9.32932,-2.2532 z m 13.58076,-10.9667 c 0.71617,-0.71617 1.30212,-2.57169 1.30212,-4.12337 0,-1.55169 -0.58595,-3.40721 -1.30212,-4.12337 -0.71616,-0.71617 -2.57168,-1.30212 -4.12336,-1.30212 -1.55169,0 -3.40721,0.58595 -4.12337,1.30212 -0.71617,0.71616 -1.30212,2.57168 -1.30212,4.12337 0,1.55168 0.58595,3.4072 1.30212,4.12337 0.71616,0.71616 2.57168,1.30211 4.12337,1.30211 1.55168,0 3.4072,-0.58595 4.12336,-1.30211 z m -75.381223,-1.49886 c -0.362151,-0.94373 -0.381705,-5.2163 -0.04351,-9.4946 0.338268,-4.2783 1.61355,-10.952637 2.834002,-14.83186 1.220441,-3.879222 4.063016,-10.219553 6.316828,-14.089626 2.253823,-3.87007 7.523391,-10.462037 11.710163,-14.64881 4.186782,-4.186775 10.778747,-9.459087 14.648811,-11.716246 3.870075,-2.25716 10.454553,-5.162052 14.632177,-6.455314 4.983819,-1.542835 10.571492,-2.370392 16.249772,-2.406655 7.71262,-0.04925 8.69935,0.173025 9.07005,2.043204 0.2299,1.159827 -0.45764,2.737256 -1.53708,3.526565 -1.07418,0.785451 -4.10864,1.428093 -6.74324,1.428093 -2.63459,0 -7.79043,0.774036 -11.457393,1.72008 -3.666966,0.946042 -10.085262,3.501944 -14.262886,5.679777 -4.811288,2.508173 -10.38629,6.750314 -15.208342,11.572363 -4.822052,4.822047 -9.064186,10.397047 -11.572366,15.20834 -2.177833,4.177625 -4.733725,10.595926 -5.679778,14.262892 -0.946042,3.666966 -1.720075,8.704087 -1.720075,11.193587 0,2.4895 -0.50547,5.47085 -1.12327,6.62522 -0.6178,1.15437 -2.098014,2.09886 -3.289353,2.09886 -1.191339,0 -2.462368,-0.77214 -2.824508,-1.71587 z m 17.726408,0.99247 c -0.397873,-0.39786 -0.723402,-3.239 -0.723402,-6.31363 0,-3.07463 0.779013,-8.24241 1.731142,-11.483948 0.95213,-3.241538 3.204303,-8.676669 5.004837,-12.078069 1.800524,-3.4014 6.285122,-9.076088 9.96576,-12.610417 3.680628,-3.534328 9.139937,-7.666487 12.131788,-9.182572 2.991852,-1.516083 8.198495,-3.558514 11.570326,-4.538732 3.371844,-0.980218 8.717634,-1.633651 11.879564,-1.452073 4.67588,0.268522 5.82351,0.721836 6.14839,2.428617 0.21969,1.154159 -0.47944,2.741114 -1.5536,3.526566 -1.07418,0.785452 -3.8283,1.428094 -6.12028,1.428094 -2.29196,0 -7.16315,1.00926 -10.824854,2.242799 -3.661704,1.233539 -8.651317,3.629955 -11.088022,5.32537 -2.436694,1.695414 -6.184869,4.958723 -8.329271,7.251799 -2.144402,2.293079 -4.912387,5.653734 -6.151079,7.468125 -1.238693,1.814391 -3.268465,6.315704 -4.510597,10.002917 -1.242133,3.687214 -2.258424,8.460564 -2.258424,10.607444 0,2.14686 -0.505471,4.84788 -1.123271,6.00225 -0.617811,1.15437 -2.00131,2.09886 -3.074449,2.09886 -1.073139,0 -2.276697,-0.32552 -2.674558,-0.7234 z m 17.031609,-0.90148 c -0.375064,-0.97741 -0.415083,-4.36266 -0.08887,-7.5228 0.326159,-3.16013 1.872618,-8.270887 3.43659,-11.357231 1.563907,-3.086344 4.763348,-7.531357 7.109795,-9.877808 2.346447,-2.346449 6.846486,-5.584626 10.000093,-7.195948 4.389318,-2.24271 7.387678,-2.951109 12.786938,-3.021075 6.80627,-0.0882 7.05314,0.0026 7.05314,2.595213 0,1.94411 -0.74973,2.892037 -2.71275,3.429905 -1.49201,0.40881 -5.08346,1.286936 -7.98099,1.951388 -2.89755,0.664453 -7.323635,2.622231 -9.835755,4.350616 -2.51213,1.728387 -5.877309,5.121774 -7.478186,7.54086 -1.600876,2.419087 -3.444022,6.73055 -4.095894,9.58103 -0.651861,2.85049 -1.517758,6.40343 -1.924203,7.89544 -0.45892,1.68462 -1.657876,2.8444 -3.163481,3.06013 -1.482373,0.21239 -2.689479,-0.34317 -3.106427,-1.42972 z"
     style="fill:#ff410d;fill-opacity:1;stroke-width:1.0851"
     id="path1-7"
     sodipodi:nodetypes="ssssssssssssssssssssssscsssssssssssssssssssssssssssssssssssssssccssssssssssss" /><g
     style="fill:none"
     id="g2"
     transform="translate(-133.62096,54.665894)" /></svg>
