<?xml version="1.0" encoding="UTF-8" standalone="no"?>
<svg
   width="128"
   height="128"
   viewBox="0 0 128 128"
   fill="none"
   version="1.1"
   id="svg2"
   sodipodi:docname="icon_damage_mystic.svg"
   inkscape:version="1.4.3 (0d15f75, 2025-12-25)"
   xmlns:inkscape="http://www.inkscape.org/namespaces/inkscape"
   xmlns:sodipodi="http://sodipodi.sourceforge.net/DTD/sodipodi-0.dtd"
   xmlns="http://www.w3.org/2000/svg"
   xmlns:svg="http://www.w3.org/2000/svg">
  <defs
     id="defs2" />
  <sodipodi:namedview
     id="namedview2"
     pagecolor="#505050"
     bordercolor="#ffffff"
     borderopacity="1"
     inkscape:showpageshadow="0"
     inkscape:pageopacity="0"
     inkscape:pagecheckerboard="1"
     inkscape:deskcolor="#505050"
     inkscape:zoom="2.8923611"
     inkscape:cx="16.422569"
     inkscape:cy="108.73469"
     inkscape:window-width="1920"
     inkscape:window-height="1051"
     inkscape:window-x="-9"
     inkscape:window-y="-9"
     inkscape:window-maximized="1"
     inkscape:current-layer="svg2" />
  <path
     fill-rule="evenodd"
     clip-rule="evenodd"
     d="M 48.266533,21.769463 C 51.613218,16.960712 59.841191,10.386668 66.508705,8 66.331836,8.3908973 66.153087,8.7809806 65.974967,9.1701688 65.794028,9.5648193 65.613715,9.9585528 65.436218,10.3513 c -0.508695,1.12176 -1.03774,2.236382 -1.566782,3.350973 -1.206469,2.542006 -2.412939,5.083699 -3.374609,7.708694 -1.280099,3.493251 -0.126157,6.241114 3.008659,8.825788 5.481082,4.521975 10.798438,9.330228 15.541047,14.566504 5.742157,6.335686 5.752487,13.547578 1.54487,20.854012 -0.07638,0.132417 -0.152764,0.264834 -0.229461,0.397251 -1.767132,3.057496 -3.547097,6.137842 -3.100697,9.875894 0.01,0.08672 3.13e-4,0.176869 -0.0094,0.266399 -0.01065,0.100491 -0.02128,0.200973 -0.0044,0.296139 0.480208,2.659304 1.364244,5.431929 4.102122,6.335059 2.859026,0.94414 4.595479,-1.50699 5.92967,-3.532068 1.036801,-1.571165 1.911132,-3.241878 2.786088,-4.913842 0.480521,-0.918156 0.961043,-1.836625 1.469114,-2.73913 0.304903,-0.542192 0.684938,-1.044939 1.06466,-1.547061 0.167478,-0.22132 0.334642,-0.44233 0.495234,-0.666782 0.243548,0.190018 0.509323,0.366574 0.775097,0.543444 0.585392,0.389426 1.171093,0.779165 1.520142,1.310087 6.108098,9.359684 5.950018,19.013316 0.705281,28.537973 -4.28741,7.778816 -9.890263,14.492666 -18.55969,18.297696 -12.52894,5.49861 -30.541808,1.93555 -40.567466,-8.18107 -9.458743,-9.54594 -11.719634,-24.595508 -5.41059,-36.492722 3.794244,-7.170259 10.229667,-11.537214 17.454993,-15.01137 1.192446,-0.572869 2.407055,-1.106921 3.621445,-1.640973 0.729485,-0.320869 1.458908,-0.641426 2.183353,-0.970748 4.786216,-2.175025 6.327016,-6.931094 3.212922,-11.160623 C 55.4107,41.110912 52.369953,37.832909 49.337908,34.593662 45.242234,30.217628 44.860196,26.665587 48.266516,21.769463 Z m 18.777164,50.133963 c 2.407305,-3.033078 1.605286,-6.092764 -2.41607,-9.061981 0.73847,5.16365 -2.41388,7.72372 -5.586387,10.300067 -0.725885,0.58946 -1.452834,1.17986 -2.134456,1.802504 -4.356189,3.958747 -6.992891,8.837215 -8.107483,14.574361 -1.89795,9.748484 6.1555,14.063153 13.607908,13.123083 7.428836,-0.93756 10.396175,-6.912303 6.759548,-13.263953 -0.325878,-0.567234 -0.682748,-1.11913 -1.040243,-1.671338 -0.360312,-0.556906 -0.720939,-1.114434 -1.050574,-1.68887 -2.705949,-4.687512 -3.873913,-9.283927 -0.03225,-14.113873 z"
     fill="#ffffff"
     id="path1"
     style="stroke-width:3.13044" />
  <path
     d="m 73.208462,24.852347 c -0.0742,-0.161531 -0.146505,-0.319524 -0.219443,-0.470129 -1.298504,-3.415867 -0.720313,-5.8901 1.488522,-6.542888 2.443931,-0.736811 3.825392,0.532142 4.646505,2.607338 1.071862,2.711362 0.144626,6.234259 -2.063583,6.856745 -2.416695,0.681841 -3.197739,-1.022744 -3.852001,-2.451066 z"
     fill="#ffffff"
     id="path2"
     style="stroke-width:3.13044" />
</svg>
