<?xml version="1.0" encoding="UTF-8" standalone="no"?>
<svg
   width="128"
   height="128"
   viewBox="0 0 128 128"
   fill="none"
   version="1.1"
   id="svg2"
   sodipodi:docname="icon_invisible.svg"
   xml:space="preserve"
   inkscape:version="1.4.3 (0d15f75, 2025-12-25)"
   xmlns:inkscape="http://www.inkscape.org/namespaces/inkscape"
   xmlns:sodipodi="http://sodipodi.sourceforge.net/DTD/sodipodi-0.dtd"
   xmlns="http://www.w3.org/2000/svg"
   xmlns:svg="http://www.w3.org/2000/svg"><defs
     id="defs2" /><sodipodi:namedview
     id="namedview2"
     pagecolor="#505050"
     bordercolor="#ffffff"
     borderopacity="1"
     inkscape:showpageshadow="0"
     inkscape:pageopacity="0"
     inkscape:pagecheckerboard="1"
     inkscape:deskcolor="#505050"
     inkscape:zoom="4.6017184"
     inkscape:cx="49.764019"
     inkscape:cy="80.296091"
     inkscape:window-width="1920"
     inkscape:window-height="1051"
     inkscape:window-x="-9"
     inkscape:window-y="-9"
     inkscape:window-maximized="1"
     inkscape:current-layer="svg2"
     showgrid="true"
     showguides="true"><inkscape:grid
       id="grid1"
       units="px"
       originx="0"
       originy="0"
       spacingx="1"
       spacingy="1"
       empcolor="#0099e5"
       empopacity="0.30196078"
       color="#0099e5"
       opacity="0.14901961"
       empspacing="5"
       enabled="true"
       visible="true" /></sodipodi:namedview><g
     style="fill:none"
     id="g1"
     transform="matrix(2.0740749,0,0,2.0740749,9.0000001,22.852574)"><path
       fill-rule="evenodd"
       clip-rule="evenodd"
       d="M 41.2222,8.59014 48.3148,2.74032 46.5085,0.553223 38.423,7.23306 C 37.5321,6.85638 36.6205,6.52547 35.6845,6.25071 34.7561,5.9778 33.8179,5.73245 32.8769,5.50502 31.4626,5.16319 30.0158,5.03776 28.5677,4.93301 27.2505,4.8379 25.9362,4.89441 24.619,4.99779 23.2498,5.1053 21.8974,5.31481 20.5647,5.61667 19.6265,5.82894 18.6968,6.09634 17.791,6.41473 16.6922,6.80067 15.6075,7.23348 14.5453,7.70625 13.1267,8.33616 11.7856,9.10941 10.4868,9.95021 8.94144,10.9509 7.47919,12.0577 6.10711,13.2734 4.73502,14.4891 3.43477,15.7765 2.24864,17.1673 l -0.14948,0.1749 c -0.57331,0.6707 -1.147095,1.3419 -1.671993,2.047 -0.593069,0.7967 -0.560668,1.6857 0.047897,2.4658 0.600116,0.7678 1.229806,1.5149 1.866546,2.255 1.55381,1.8043 3.26963,3.4514 5.13336,4.9469 0.77475,0.622 1.57146,1.212 2.39169,1.7677 l -5.28864,4.3691 1.77792,2.1528 6.02606,-4.97 5.8142,-4.7954 4.0143,-3.3108 9.3208,-7.6875 4.0018,-3.3005 z M 33.3615,11.4146 C 31.6564,10.2862 29.6179,9.59331 27.4153,9.51603 20.9592,9.2886 15.9216,14.3182 15.6624,20.008 c -0.0856,1.8815 0.2894,3.6388 1.0153,5.1897 l 4.3177,-3.5671 C 20.9448,21.3525 20.914,21.068 20.9043,20.7786 20.7916,17.4017 23.7048,14.5485 27.159,14.6284 V 14.627 c 0.6639,0.0154 1.3024,0.1351 1.8988,0.343 z m -26.99646,25.9429 1.0918,1.1314 -0.0936,0.0773 z M 33.013,19.5022 24.9109,26.1846 c 0.6499,0.2339 1.354,0.3657 2.0931,0.3748 3.3161,-0.0275 6.2237,-2.7388 6.1026,-6.2053 C 33.0964,20.0645 33.0647,19.78 33.013,19.5022 Z m -6.4401,12.1695 c -2.1855,-0.085 -4.2435,-0.7799 -5.9712,-1.933 l -5.0721,4.1832 c 1.0813,0.4602 2.1875,0.859 3.3207,1.1888 1.6567,0.481 3.3359,0.8601 5.0644,0.9979 l 0.0446,0.0035 c 1.0121,0.0802 2.0247,0.1604 3.0743,0.2432 0.3463,-0.0285 0.6954,-0.0552 1.0465,-0.082 l 0.0018,-10e-5 c 0.8523,-0.0651 1.7157,-0.131 2.5763,-0.2266 0.7909,-0.0886 1.5749,-0.2445 2.3561,-0.3998 h 1e-4 l 10e-5,-10e-5 0.0272,-0.0054 c 1.5214,-0.3005 2.9964,-0.7677 4.4403,-1.3177 1.5665,-0.5968 3.0668,-1.3287 4.5163,-2.1612 1.5877,-0.9125 3.0908,-1.9463 4.5122,-3.0875 1.7918,-1.4377 3.4527,-3.0104 4.9572,-4.7333 0.7255,-0.8312 1.4383,-1.6747 2.1103,-2.5472 0.593,-0.7691 0.5494,-1.7216 -0.0578,-2.481 l -0.0014,0.0027 c -0.5959,-0.7429 -1.2002,-1.479 -1.8229,-2.2012 -1.3481,-1.5658 -2.8244,-3.0103 -4.405,-4.3528 -1.0163,-0.863 -2.0745,-1.6698 -3.1772,-2.4153 l -6.7953,5.6045 c 0.6718,1.4167 1.0388,2.9874 1.0215,4.6274 0.0761,6.2522 -5.4109,11.3397 -11.767,11.093 z"
       fill="#ce90ff"
       id="path1" /></g></svg>
