<?xml version="1.0" encoding="UTF-8" standalone="no"?>
<svg
   width="128"
   height="128"
   viewBox="0 0 128 128"
   fill="none"
   version="1.1"
   id="svg2"
   sodipodi:docname="icon_courage.svg"
   xml:space="preserve"
   inkscape:version="1.4.3 (0d15f75, 2025-12-25)"
   xmlns:inkscape="http://www.inkscape.org/namespaces/inkscape"
   xmlns:sodipodi="http://sodipodi.sourceforge.net/DTD/sodipodi-0.dtd"
   xmlns="http://www.w3.org/2000/svg"
   xmlns:svg="http://www.w3.org/2000/svg"><defs
     id="defs2" /><sodipodi:namedview
     id="namedview2"
     pagecolor="#505050"
     bordercolor="#ffffff"
     borderopacity="1"
     inkscape:showpageshadow="0"
     inkscape:pageopacity="0"
     inkscape:pagecheckerboard="1"
     inkscape:deskcolor="#505050"
     inkscape:zoom="4.6017184"
     inkscape:cx="85.62019"
     inkscape:cy="53.132326"
     inkscape:window-width="1920"
     inkscape:window-height="1051"
     inkscape:window-x="-9"
     inkscape:window-y="-9"
     inkscape:window-maximized="1"
     inkscape:current-layer="svg2" /><g
     style="fill:none"
     id="g2"
     transform="matrix(3.3939401,0,0,3.3939408,6.649266,5.4682159)"><path
       d="M 12.17,5.59117 11.2809,2.45694 C 11.2635,2.38395 11.2301,2.31576 11.183,2.25734 11.136,2.19893 11.0765,2.15176 11.0089,2.11927 10.9413,2.08678 10.8674,2.06979 10.7924,2.06954 10.7174,2.06929 10.6434,2.08577 10.5756,2.11781 7.27473,3.56342 4.53754,6.05109 2.78232,9.20064 1.0271,12.3502 0.350399,15.9884 0.855622,19.5592 c 0.008903,0.0743 0.034134,0.1458 0.073878,0.2092 0.039744,0.0634 0.09301,0.1172 0.15599,0.1576 0.06299,0.0404 0.13412,0.0663 0.2083,0.0759 0.07417,0.0097 0.14956,0.0027 0.22074,-0.0203 L 4.64854,19.0909 C 4.80316,19.0397 4.93601,18.9378 5.02562,18.8017 5.11523,18.6656 5.15635,18.5032 5.14234,18.3408 4.9189,15.9086 5.43532,13.4656 6.62382,11.3325 7.81232,9.19931 9.61737,7.47566 11.8021,6.38777 11.9427,6.31434 12.0551,6.19637 12.1216,6.05225 12.1882,5.90813 12.2052,5.74598 12.17,5.59117 Z"
       fill="#ff9900"
       id="path1-0" /><path
       d="m 28.8223,12.2169 3.134,-0.8908 c 0.0724,-0.0183 0.1398,-0.0524 0.1976,-0.0996 0.0577,-0.0473 0.1044,-0.1067 0.1367,-0.1741 0.0324,-0.0673 0.0495,-0.141 0.0503,-0.2157 7e-4,-0.0747 -0.0149,-0.1486 -0.0458,-0.2166 C 30.8482,7.32287 28.3643,4.58937 25.2217,2.83594 22.0792,1.0825 18.4502,0.405225 14.8875,0.907278 14.813,0.915682 14.7413,0.940626 14.6777,0.980274 14.614,1.01992 14.56,1.07329 14.5196,1.13647 14.4792,1.19966 14.4533,1.27108 14.444,1.34553 c -0.0094,0.07445 -0.002,0.15005 0.0215,0.2213 l 0.8891,3.13423 c 0.0502,0.15535 0.1518,0.28897 0.288,0.37881 0.1362,0.08985 0.2989,0.13056 0.4613,0.11546 2.4299,-0.22366 4.8705,0.29327 7.0016,1.48293 2.1311,1.18965 3.853,2.99643 4.9399,5.18324 0.0747,0.1344 0.1904,0.2414 0.3302,0.3053 0.1397,0.0639 0.2963,0.0815 0.4467,0.0501 z"
       fill="#ff9900"
       id="path2-9" /><path
       d="m 23.1057,32.0203 -0.8899,-3.1371 c -0.0354,-0.1526 -0.02,-0.3127 0.0438,-0.4558 0.0639,-0.1431 0.1728,-0.2613 0.3101,-0.3367 2.1847,-1.0879 3.9897,-2.8116 5.1782,-4.9447 1.1885,-2.1332 1.7049,-4.5762 1.4815,-7.0084 -0.0146,-0.1625 0.0263,-0.3251 0.116,-0.4614 0.0897,-0.1362 0.2229,-0.2379 0.3778,-0.2887 l 3.1481,-0.8947 c 0.0712,-0.0225 0.1464,-0.029 0.2204,-0.0191 0.074,0.0098 0.1449,0.0358 0.2077,0.0761 0.0629,0.0403 0.1161,0.0939 0.156,0.157 0.0399,0.0632 0.0654,0.1343 0.0748,0.2084 0.5042,3.5707 -0.1729,7.2085 -1.928,10.3578 -1.7551,3.1494 -4.4917,5.6372 -7.7919,7.0836 -0.0676,0.0319 -0.1414,0.0484 -0.2161,0.0482 -0.0747,-1e-4 -0.1485,-0.0169 -0.2159,-0.0491 -0.0674,-0.0322 -0.1269,-0.079 -0.174,-0.137 -0.0471,-0.058 -0.0808,-0.1258 -0.0986,-0.1984 z"
       fill="#ff9900"
       id="path3" /><path
       d="m 5.55359,22.2598 -3.13402,0.8908 c -0.07263,0.0179 -0.1404,0.0516 -0.19846,0.0988 -0.05806,0.0472 -0.10496,0.1067 -0.13735,0.1742 -0.03238,0.0675 -0.04944,0.1413 -0.04995,0.2162 -5.2e-4,0.0748 0.01552,0.1488 0.04697,0.2168 1.44489,3.3037 3.93072,6.043 7.07758,7.7993 3.14684,1.7563 6.78164,2.4329 10.34894,1.9264 0.0742,-0.0084 0.1456,-0.0332 0.2091,-0.0726 0.0635,-0.0394 0.1174,-0.0925 0.1579,-0.1553 0.0405,-0.0629 0.0665,-0.134 0.0761,-0.2081 0.0097,-0.0742 0.0027,-0.1496 -0.0203,-0.2207 l -0.8899,-3.137 C 18.99,29.6332 18.8884,29.4996 18.7522,29.4097 18.616,29.3199 18.4533,29.2792 18.2909,29.2943 15.861,29.518 13.4204,29.001 11.2893,27.8114 9.15821,26.6217 7.43625,24.8149 6.34941,22.6281 6.2753,22.488 6.15732,22.3761 6.01357,22.3096 5.86982,22.2431 5.70822,22.2256 5.55359,22.2598 Z"
       fill="#ff9900"
       id="path4" /><path
       fill-rule="evenodd"
       clip-rule="evenodd"
       d="m 9.51186,12.948 c 1.13544,-2.0378 3.03304,-3.54073 5.27544,-4.17807 2.2424,-0.63735 4.646,-0.35691 6.6818,0.77959 2.0359,1.13648 3.5374,3.03598 4.1741,5.28058 0.6367,2.2446 0.3566,4.6505 -0.7788,6.6883 -1.1354,2.0378 -3.0331,3.5407 -5.2755,4.1781 -2.2424,0.6373 -4.6459,0.3569 -6.6818,-0.7796 C 10.8712,23.7804 9.36976,21.8809 8.73303,19.6363 8.0963,17.3917 8.37646,14.9859 9.51186,12.948 Z m 5.53574,8.1271 c 1.0179,0.5682 2.2197,0.7084 3.3409,0.3897 l 0.0016,0.0057 c 0.5557,-0.1579 1.0747,-0.4239 1.5276,-0.7828 0.4528,-0.3589 0.8306,-0.8037 1.1116,-1.3088 0.281,-0.5051 0.4597,-1.0608 0.526,-1.6351 0.0663,-0.5744 0.0189,-1.1562 -0.1397,-1.7122 -0.3183,-1.1223 -1.069,-2.072 -2.087,-2.6402 -1.0179,-0.5683 -2.2197,-0.7085 -3.3409,-0.3898 -1.1212,0.3186 -2.07,1.0701 -2.6377,2.089 -0.5677,1.019 -0.7078,2.2219 -0.3894,3.3442 0.3183,1.1223 1.0691,2.072 2.087,2.6403 z"
       fill="#ff9900"
       id="path5" /></g></svg>
