<?xml version="1.0" encoding="UTF-8" standalone="no"?>
<svg
   width="128"
   height="128"
   viewBox="0 0 128 128"
   fill="none"
   version="1.1"
   id="svg1"
   sodipodi:docname="icon_soul.svg"
   inkscape:version="1.4.3 (0d15f75, 2025-12-25)"
   xmlns:inkscape="http://www.inkscape.org/namespaces/inkscape"
   xmlns:sodipodi="http://sodipodi.sourceforge.net/DTD/sodipodi-0.dtd"
   xmlns="http://www.w3.org/2000/svg"
   xmlns:svg="http://www.w3.org/2000/svg">
  <defs
     id="defs1" />
  <sodipodi:namedview
     id="namedview1"
     pagecolor="#505050"
     bordercolor="#ffffff"
     borderopacity="1"
     inkscape:showpageshadow="0"
     inkscape:pageopacity="0"
     inkscape:pagecheckerboard="1"
     inkscape:deskcolor="#505050"
     inkscape:zoom="6.2164179"
     inkscape:cx="50.430972"
     inkscape:cy="63.943577"
     inkscape:window-width="1920"
     inkscape:window-height="1051"
     inkscape:window-x="-9"
     inkscape:window-y="-9"
     inkscape:window-maximized="1"
     inkscape:current-layer="svg1" />
  <path
     d="m 83.210351,60.580479 c 0,-7.617587 -5.638974,-13.380175 -13.118265,-15.549427 C 66.04852,43.856131 61.83421,43.268185 57.73695,42.26729 53.440554,41.214243 50.473213,38.593217 48.770646,34.573603 47.387645,31.308426 46.558632,28.001916 47.21188,24.434269 c 0.858738,-4.651018 3.546805,-7.802392 8.122496,-9.29122 2.158435,-0.705649 4.406104,-1.189293 6.644503,-1.608368 3.999529,-0.743062 6.026621,-3.053408 5.987606,-7.0588076 -0.01217,-0.9913931 -0.125931,-1.9865139 -0.07204,-2.9737735 0.170354,-3.12051216 1.822356,-4.06784412 4.773474,-2.78026356 6.009624,2.62837176 9.815616,9.75565066 8.523646,15.99840566 -0.859511,4.165115 -3.838249,6.44755 -7.593638,8.015531 -0.698425,0.291075 -1.412301,0.572492 -2.142402,0.774909 -1.820234,0.493111 -3.028763,1.519311 -3.106796,3.444036 -0.08247,1.998893 1.267634,2.993803 2.99361,3.512985 5.054892,1.524521 9.840727,3.503523 13.987047,6.833983 14.966114,12.012876 15.978794,34.05248 1.079701,47.868786 -1.076417,0.999736 -2.033469,1.373479 -3.198733,0.09368 -5.197821,-5.697109 -11.91978,-8.34653 -19.555907,-8.778603 -6.56203,-0.370846 -11.479979,-6.899459 -11.892351,-11.500066 -0.18851,-2.094889 0.521693,-4.334641 1.17299,-6.405 0.514162,-1.632492 1.454989,-3.314622 -0.304015,-4.473128 -1.866782,-1.231323 -4.013569,-0.392092 -4.750025,1.367105 -1.151746,2.740778 -2.137402,5.752351 -2.213484,8.67836 -0.205412,7.736565 7.386311,16.592428 17.495321,18.302952 2.666031,0.453126 5.346932,0.861636 7.989011,1.429106 6.319823,1.355517 9.153697,5.961145 10.523893,11.501997 1.257592,5.071305 0.781093,10.183565 -3.925357,13.453955 -2.64324,1.83704 -6.037631,2.96927 -9.265531,3.59372 -5.547228,1.06947 -7.31531,2.9206 -7.272237,8.51225 0.01449,1.59638 -0.289143,3.80619 -1.35204,4.66705 -1.697584,1.3644 -3.643748,-0.1041 -5.254608,-1.21471 -3.853121,-2.65483 -6.387383,-6.04961 -6.674962,-10.84028 -0.370962,-6.19756 1.88936,-9.8048 7.81821,-12.11833 0.708855,-0.2764 1.449192,-0.46395 2.163264,-0.72547 3.352672,-1.22591 4.018842,-4.585535 1.194043,-6.767148 -1.222244,-0.946807 -2.776896,-1.597139 -4.283262,-2.064557 -23.430075,-7.34293 -30.522322,-35.644219 -13.237071,-52.76684 1.668728,-1.65142 2.779873,-1.893242 4.486668,-0.02028 5.048324,5.54549 11.622909,8.196646 19.095828,8.595885 7.106515,0.379151 12.618202,7.624347 12.450357,13.44179 -0.04693,1.572228 -0.82629,3.153343 -1.43355,4.668014 -0.641638,1.609122 -1.383716,3.318679 0.441153,4.441644 1.932258,1.185933 3.890011,0.279486 4.743534,-1.466189 0.481714,-0.984867 1.840128,-2.579307 1.840128,-10.196896 z"
     fill="#70f8c1"
     id="path1"
     style="stroke-width:1.93148" />
</svg>
