<svg width="128" height="128" viewBox="0 0 128 128" fill="none" xmlns="http://www.w3.org/2000/svg">
<path d="M8.1211 97.3166C8.49898 96.2788 9.64671 95.7435 10.6846 96.1213L69.5527 117.548C70.5907 117.926 71.1258 119.074 70.7481 120.111C70.3702 121.149 69.2225 121.685 68.1846 121.307L9.31642 99.88C8.27846 99.5023 7.74332 98.3545 8.1211 97.3166ZM100.03 108.861C100.408 107.823 101.556 107.287 102.594 107.665L116.688 112.795C117.726 113.173 118.262 114.321 117.884 115.359C117.506 116.396 116.358 116.932 115.32 116.554L101.226 111.424C100.188 111.046 99.6526 109.898 100.03 108.861ZM30.4932 83.5509C30.871 82.513 32.0187 81.9778 33.0567 82.3556L85.3096 101.374C86.3472 101.752 86.8826 102.9 86.5049 103.938C86.1271 104.975 84.9792 105.51 83.9414 105.133L31.6885 86.1144C30.6506 85.7367 30.1155 84.5888 30.4932 83.5509ZM53.8877 3.48844C56.7289 2.59251 59.7583 4.16969 60.6543 7.0109L66.4248 25.3088C66.9151 26.8634 66.676 28.5561 65.7744 29.9142L55.7461 45.0207L67.7344 55.7423L78.1592 36.3224C78.8417 35.0509 80.0052 34.1057 81.3897 33.6984C82.7743 33.2912 84.265 33.4557 85.5274 34.1554L110.971 48.2589C113.576 49.7033 114.518 52.9863 113.073 55.592C111.629 58.1976 108.346 59.1388 105.74 57.6945L85.0791 46.2423L75.7979 63.5334C75.5702 63.9574 75.2927 64.3377 74.9785 64.673L73.124 67.6886L120.826 85.1193C123.624 86.1417 125.064 89.2391 124.042 92.0373C123.02 94.8354 119.922 96.2754 117.124 95.2531L66.4512 76.7375L32.3594 64.5197L15.2031 58.6066C13.5398 58.0333 12.2603 56.6845 11.7754 54.9933L5.31642 32.466C4.49524 29.6022 6.15086 26.6153 9.01466 25.7941C11.8785 24.9729 14.8654 26.6285 15.6865 29.4923L21.3731 49.3214L35.419 54.1623L43.4561 44.047C43.5102 43.9539 43.5676 43.8616 43.6279 43.7707L55.3604 26.0949L50.3652 10.255C49.4695 7.41391 51.0466 4.38444 53.8877 3.48844ZM5.1211 74.3166C5.49889 73.2786 6.64663 72.7435 7.68458 73.1213L21.7793 78.2511C22.8173 78.6289 23.3524 79.7767 22.9746 80.8146C22.5968 81.8525 21.4491 82.3877 20.4111 82.0099L6.31642 76.88C5.27852 76.5023 4.74345 75.3545 5.1211 74.3166ZM32.2383 21.255C37.9833 19.6748 43.9217 23.051 45.502 28.7961C47.082 34.541 43.7059 40.4795 37.9609 42.0597C32.216 43.6399 26.2777 40.2635 24.6973 34.5187C23.117 28.7737 26.4933 22.8354 32.2383 21.255Z" fill="#00FF99"/>
</svg>