<svg width="128" height="128" viewBox="0 0 128 128" fill="none" xmlns="http://www.w3.org/2000/svg">
<path d="M33.8002 9.49957C35.1001 8.2 37.1995 8.20003 38.4994 9.49957L57.3002 28.1998C58.6001 29.4998 58.5 31.6002 57.6 33.1002C54.8564 37.614 55.0915 43.3793 58.2318 47.6959L83.4994 36.2994L100.499 20.7994L121.2 56.7994L86.3998 70.1998L85.7992 94.7994L93.3998 108.9L87.1996 112.5L70.8998 104.5L56.7992 92.7994L54.1996 73.9L46.6996 75.1998L36.4994 57.4996L51.5717 50.6998L43.1996 42.4C41.8997 41.1 41.8997 38.9998 43.1996 37.6998C44.4996 36.3998 46.5998 36.3998 47.8998 37.6998L38.4994 28.2994C37.2 26.9995 37.1999 24.9 38.4994 23.6002C39.7994 22.3002 41.8996 22.3002 43.1996 23.6002L33.8002 14.1998C32.5002 12.8998 32.5002 10.7996 33.8002 9.49957Z" fill="#00FF99"/>
<path d="M24.5642 59.1828C25.5676 58.7215 26.755 59.161 27.2165 60.1642C27.678 61.1678 27.2387 62.3561 26.2351 62.8176L8.83568 70.8176C7.8322 71.2789 6.64387 70.8395 6.18236 69.8361C5.72099 68.8326 6.16043 67.6443 7.1638 67.1828L24.5642 59.1828Z" fill="#00FF99"/>
<path d="M29.6648 34.5827C30.6682 34.1214 31.8555 34.5609 32.3171 35.5641C32.7785 36.5677 32.3393 37.756 31.3357 38.2175L13.9363 46.2175C12.9328 46.6788 11.7445 46.2394 11.2829 45.236C10.8216 44.2325 11.261 43.0442 12.2644 42.5827L29.6648 34.5827Z" fill="#00FF99"/>
<path d="M36.0665 78.3824C37.0704 77.9219 38.2573 78.3619 38.7179 79.3658C39.1784 80.3696 38.7381 81.5564 37.7345 82.0172L9.83409 94.8179C8.83017 95.2784 7.6433 94.8375 7.18273 93.8336C6.72214 92.8296 7.16224 91.6428 8.16612 91.1822L36.0665 78.3824Z" fill="#00FF99"/>
<path d="M45.5669 98.5815C46.5711 98.1217 47.7583 98.5627 48.2182 99.5669C48.6781 100.571 48.2362 101.758 47.2319 102.218L17.5327 115.818C16.5284 116.278 15.3412 115.837 14.8813 114.832C14.4215 113.828 14.8625 112.641 15.8667 112.181L45.5669 98.5815Z" fill="#00FF99"/>
<path d="M68.0624 110.384C69.0652 109.921 70.2538 110.359 70.7167 111.362C71.1793 112.365 70.741 113.554 69.7381 114.016L55.4383 120.616C54.4355 121.079 53.2469 120.641 52.784 119.638C52.3212 118.636 52.7597 117.447 53.7626 116.984L68.0624 110.384Z" fill="#00FF99"/>
</svg>