<?xml version="1.0" encoding="UTF-8" standalone="no"?>
<svg
   width="128"
   height="128"
   viewBox="0 0 128 128"
   fill="none"
   version="1.1"
   id="svg1"
   sodipodi:docname="pure_damage.svg"
   xml:space="preserve"
   inkscape:version="1.4.3 (0d15f75, 2025-12-25)"
   xmlns:inkscape="http://www.inkscape.org/namespaces/inkscape"
   xmlns:sodipodi="http://sodipodi.sourceforge.net/DTD/sodipodi-0.dtd"
   xmlns="http://www.w3.org/2000/svg"
   xmlns:svg="http://www.w3.org/2000/svg"><defs
     id="defs1" /><sodipodi:namedview
     id="namedview1"
     pagecolor="#505050"
     bordercolor="#ffffff"
     borderopacity="1"
     inkscape:showpageshadow="0"
     inkscape:pageopacity="0"
     inkscape:pagecheckerboard="1"
     inkscape:deskcolor="#505050"
     inkscape:zoom="1.6269532"
     inkscape:cx="63.308522"
     inkscape:cy="45.791116"
     inkscape:window-width="1920"
     inkscape:window-height="1051"
     inkscape:window-x="-9"
     inkscape:window-y="-9"
     inkscape:window-maximized="1"
     inkscape:current-layer="svg1"
     showguides="true" /><path
     d="M 105.223,39.1438 33.8016,114.514 c -3.9375,4.156 -5.1188,3.347 -2.636,-1.816 L 56.7047,59.6297 c 0.4922,-1.0281 -0.0328,-1.8813 -1.1703,-1.8922 L 33.2547,57.5297 c -1.1484,0 -1.6078,-0.8203 -1.0391,-1.8156 L 53.7297,18.4938 C 54.2984,17.4984 54.1016,16.0547 53.2156,15.3219 48.4688,11.3844 42.4859,9 36,9 20.5344,9 8,22.3 8,38.6734 8,68.2047 42.2891,87.5859 61.2766,116.57 c 1.564,2.396 3.8718,2.396 5.4468,0 C 85.7109,87.575 120,68.2047 120,38.6734 120,23.0328 108.57,10.2031 94.0781,9.07656 92.9406,8.98906 91.5406,9.79844 90.9719,10.7938 L 76.5016,35.8297 c -0.5688,0.9953 -0.1094,1.7937 1.039,1.7937 h 27.0484 c 1.149,0 1.433,0.6782 0.645,1.5094 z"
     fill="#ff410d"
     id="path1"
     style="display:none" /><g
     style="fill:none"
     id="g1"
     transform="matrix(4.5527649,0,0,4.5527649,-2.3000317,12.289801)"><path
       d="m 26.8443,10.9368 c 0.0061,3.2055 0.0133,6.4109 0.0185,9.6163 0.0013,1.1638 -0.3257,1.4799 -1.5184,1.4814 -6.5648,0.0103 -13.1297,0.0196 -19.69457,0.0288 -0.06583,0 -0.13067,0 -0.19651,10e-4 -0.2889,0.0044 -0.57868,0.001 -0.63702,-0.3681 -0.05747,-0.3624 0.21619,-0.4647 0.48389,-0.5622 0.62728,-0.2294 1.25645,-0.4539 1.88373,-0.6833 1.51534,-0.5535 3.03258,-1.1002 4.54318,-1.6653 0.8121,-0.304 0.6935,0.3346 0.1624,-0.3519 -0.2381,-0.308 -0.493,-0.6018 -0.7341,-0.907 -0.189,-0.2396 -0.3011,-0.4916 -0.1413,-0.8005 0.1639,-0.3166 0.4414,-0.3482 0.7487,-0.331 2.1242,0.1168 4.2475,0.2325 6.3718,0.3493 0.1306,0.0068 -2.9653,4.2021 -2.5232,0.8488 0.9249,0.037 -5.1159,-10.03895 -5.17,-10.95225 -0.1082,-1.8324 9.5257,3.83855 9.4145,2.00613 -0.0252,-0.41796 -0.0327,-0.83662 -0.051,-1.25544 -0.0118,-0.26213 0.068,-0.47843 0.3146,-0.60621 0.2554,-0.13151 0.5116,-0.11222 0.7399,0.05551 0.3547,0.25952 0.6924,0.54005 1.0462,0.80052 0.6773,0.49825 1.2927,0.34022 1.5852,-0.43162 0.7701,-2.03098 1.5187,-4.07098 2.2879,-6.10294 0.1217,-0.322972 0.1429,-0.8224 0.6797,-0.716757 0.4918,0.097237 0.3622,0.549618 0.3641,0.883137 0.0138,3.22196 0.0168,6.44183 0.0218,9.66362 z"
       fill="#ffffff"
       id="path1-0" /><path
       d="m 3.83686,11.9585 c 0.54494,0.5094 1.11966,0.813 1.80325,0.9202 1.26148,0.1985 2.52181,0.3984 3.78188,0.6117 C 9.98274,13.5855 10.411,13.4341 10.624,12.891 10.8304,12.3606 10.547,12.0234 10.1167,11.7546 8.04194,10.4569 5.97163,9.15155 3.89117,7.86049 3.51319,7.62662 3.09098,7.48583 2.66509,7.77186 2.19281,8.08741 2.20663,8.54956 2.35098,9.00963 2.6902,10.0936 2.86173,11.2672 3.83818,11.9596 Z"
       fill="#ffffff"
       id="path2" /></g></svg>
