<?xml version="1.0" encoding="UTF-8" standalone="no"?>
<svg
   width="128"
   height="128"
   viewBox="0 0 128 128"
   fill="none"
   version="1.1"
   id="svg1"
   sodipodi:docname="scaling.svg"
   xml:space="preserve"
   inkscape:version="1.4.3 (0d15f75, 2025-12-25)"
   xmlns:inkscape="http://www.inkscape.org/namespaces/inkscape"
   xmlns:sodipodi="http://sodipodi.sourceforge.net/DTD/sodipodi-0.dtd"
   xmlns="http://www.w3.org/2000/svg"
   xmlns:svg="http://www.w3.org/2000/svg"><defs
     id="defs1" /><sodipodi:namedview
     id="namedview1"
     pagecolor="#505050"
     bordercolor="#ffffff"
     borderopacity="1"
     inkscape:showpageshadow="0"
     inkscape:pageopacity="0"
     inkscape:pagecheckerboard="1"
     inkscape:deskcolor="#505050"
     inkscape:zoom="4.6017184"
     inkscape:cx="59.434319"
     inkscape:cy="49.655363"
     inkscape:window-width="1920"
     inkscape:window-height="1051"
     inkscape:window-x="-9"
     inkscape:window-y="-9"
     inkscape:window-maximized="1"
     inkscape:current-layer="svg1"
     showguides="true" /><path
     style="display:inline;fill:#99ffd6;fill-opacity:1;stroke-width:2.46889"
     d="M 105.25115,124.02958 31.474032,93.880234 47.320689,58.497313 33.493416,44.780899 13.286053,59.427921 20.769077,3.5803828 78.091059,18.020249 58.041078,29.549462 80.987443,55.306649 66.941116,80.548891 113.29988,102.57164 Z"
     id="path4"
     sodipodi:nodetypes="cccccccccccc" /><path
     style="display:inline;fill:#0f5b3d;fill-opacity:1;stroke-width:2.46889"
     d="M 106.47979,127.27672 26.910498,94.582316 45.828764,59.989237 33.932218,47.325947 10.828766,62.236249 19.891475,2.3517396 81.864749,16.703844 60.410606,30.602585 83.708012,55.306649 69.135122,80.02233 117.07357,100.99196 Z m 1.03804,-22.5779 L 58.090625,83.174281 74.67856,56.510575 48.024934,29.434008 62.047924,19.650786 27.53582,11.683576 22.485379,46.737286 36.029676,37.806882 54.939882,59.729161 37.369279,91.148334 102.71484,117.93982 Z"
     id="path3"
     sodipodi:nodetypes="cccccccccccccccccccccccc" /></svg>
