<?xml version="1.0" encoding="UTF-8" standalone="no"?>
<svg
   width="128"
   height="128"
   viewBox="0 0 128 128"
   fill="none"
   version="1.1"
   id="svg2"
   sodipodi:docname="shred_alt.svg"
   xml:space="preserve"
   inkscape:version="1.4.3 (0d15f75, 2025-12-25)"
   xmlns:inkscape="http://www.inkscape.org/namespaces/inkscape"
   xmlns:sodipodi="http://sodipodi.sourceforge.net/DTD/sodipodi-0.dtd"
   xmlns="http://www.w3.org/2000/svg"
   xmlns:svg="http://www.w3.org/2000/svg"><defs
     id="defs2"><inkscape:path-effect
       effect="spiro"
       id="path-effect21"
       is_visible="true"
       lpeversion="1" /><inkscape:path-effect
       effect="spiro"
       id="path-effect17"
       is_visible="true"
       lpeversion="1" /><clipPath
       id="clip0_13382_13230"><rect
         width="128"
         height="128"
         fill="white"
         id="rect3" /></clipPath><clipPath
       id="clip1_13382_13230"><rect
         width="128"
         height="128"
         fill="white"
         id="rect4" /></clipPath></defs><sodipodi:namedview
     id="namedview2"
     pagecolor="#505050"
     bordercolor="#ffffff"
     borderopacity="1"
     inkscape:showpageshadow="0"
     inkscape:pageopacity="0"
     inkscape:pagecheckerboard="1"
     inkscape:deskcolor="#505050"
     showgrid="false"
     inkscape:zoom="4"
     inkscape:cx="68"
     inkscape:cy="82.875"
     inkscape:window-width="1920"
     inkscape:window-height="1051"
     inkscape:window-x="-9"
     inkscape:window-y="-9"
     inkscape:window-maximized="1"
     inkscape:current-layer="svg2" /><path
     id="path1"
     d="M 64.025391 8.015625 C 63.210042 8.5558152 42.456529 22.245557 15 34.320312 C 15 39.618089 15.328026 44.621548 15.931641 49.345703 L 83.291016 49.345703 L 73.322266 65.212891 L 108.78516 65.212891 C 111.39561 56.273671 112.99152 46.052315 113 34.414062 C 103.63593 30.249971 95.045162 25.907425 87.763672 21.974609 C 73.727987 14.430752 64.561423 8.3713568 64.025391 8.015625 z M 105.25 75.21875 L 43.412109 91.533203 L 53.382812 75.666016 L 22.974609 75.666016 C 24.645532 79.576777 26.517063 83.165411 28.496094 86.490234 C 28.590012 86.64827 28.680932 86.812003 28.775391 86.96875 C 30.730485 90.208092 32.796312 93.172858 34.910156 95.878906 C 37.194549 98.79979 39.524172 101.43554 41.835938 103.76953 C 43.237065 105.18759 44.585318 106.3349 45.947266 107.54883 C 47.036599 108.51549 48.135112 109.54189 49.177734 110.38281 C 50.529922 111.47761 51.813236 112.44601 53.050781 113.33789 C 53.943729 113.97666 54.819678 114.60578 55.632812 115.14258 C 56.764108 115.89358 57.898851 116.64414 58.841797 117.20703 C 59.346641 117.50454 59.763539 117.74247 60.201172 117.98633 C 62.314687 119.17674 63.830285 119.90263 64.025391 119.98828 C 64.955355 119.58159 91.679304 107.66314 105.25 75.21875 z "
     style="fill:#00ff99;fill-opacity:0.5" /><path
     id="path2"
     d="M 64.025391 8.015625 C 63.637971 8.2723009 58.368896 11.700431 50.398438 16.310547 C 41.858632 21.249974 30.161858 27.576812 16.292969 33.748047 C 15.863988 33.93893 15.432357 34.130172 15 34.320312 C 15 39.413471 15.309178 44.132477 15.857422 48.705078 C 15.883261 48.917925 15.906638 49.133983 15.933594 49.345703 L 64 49.345703 L 64 19.839844 C 66.3511 21.289344 69.392566 23.121578 73.009766 25.205078 C 80.678366 29.622178 90.984313 35.200053 102.82031 40.689453 C 102.29972 49.943085 100.66148 58.080478 98.314453 65.212891 L 108.78516 65.212891 C 109.36944 63.212081 109.70546 60.921891 110.18164 58.791016 C 110.73874 56.287139 111.40527 53.906356 111.79492 51.220703 C 112.07302 49.309376 112.0837 47.135381 112.26758 45.128906 C 112.58635 41.632599 112.99969 38.228009 113 34.423828 L 113 34.414062 C 103.67223 30.266091 95.112936 25.940253 87.849609 22.019531 C 73.766382 14.45457 64.562492 8.3720736 64.025391 8.015625 z M 105.25 75.21875 L 92.591797 78.558594 C 89.109757 85.020412 85.100288 90.331651 81.134766 94.648438 C 75.683966 100.58204 70.243844 104.70536 66.214844 107.31836 C 65.414644 107.83736 64.6721 108.29436 64 108.69336 L 64 86.101562 L 43.412109 91.533203 L 53.382812 75.666016 L 22.974609 75.666016 C 36.686961 107.75951 63.102681 119.58323 64.025391 119.98828 C 64.955351 119.58159 91.679288 107.66312 105.25 75.21875 z "
     style="fill:#00ff99;fill-opacity:1" /><g
     style="fill:#ff9900;fill-opacity:1"
     id="g22"
     transform="matrix(0.99658159,0,0,0.93229167,-3.6760956,4.3400072)"><g
       clip-path="url(#clip1_13382_13230)"
       id="g2"
       style="fill:#ff9900;fill-opacity:1"><path
         d="m 42.9999,62.3999 c 0,0 -4.3,-7 -17.1,-7 -15.3,0 -18.5,0 -18.5,0 v 7 7 c 0,0 3.2,0 18.5,0 12.8,0 17.1,-7 17.1,-7 z"
         fill="#ffffff"
         id="path2-4"
         style="fill:#ff9900;fill-opacity:1" /></g></g></svg>
