<?xml version="1.0" encoding="UTF-8" standalone="no"?>
<svg
   width="128"
   height="128"
   viewBox="0 0 128 128"
   fill="none"
   version="1.1"
   id="svg1"
   sodipodi:docname="viscous_goo_puddle.svg"
   xml:space="preserve"
   inkscape:version="1.4.3 (0d15f75, 2025-12-25)"
   xmlns:inkscape="http://www.inkscape.org/namespaces/inkscape"
   xmlns:sodipodi="http://sodipodi.sourceforge.net/DTD/sodipodi-0.dtd"
   xmlns:xlink="http://www.w3.org/1999/xlink"
   xmlns="http://www.w3.org/2000/svg"
   xmlns:svg="http://www.w3.org/2000/svg"><defs
     id="defs1" /><sodipodi:namedview
     id="namedview1"
     pagecolor="#505050"
     bordercolor="#ffffff"
     borderopacity="1"
     inkscape:showpageshadow="0"
     inkscape:pageopacity="0"
     inkscape:pagecheckerboard="1"
     inkscape:deskcolor="#505050"
     inkscape:zoom="3.2539063"
     inkscape:cx="60.542617"
     inkscape:cy="85.896759"
     inkscape:window-width="1031"
     inkscape:window-height="1033"
     inkscape:window-x="459"
     inkscape:window-y="23"
     inkscape:window-maximized="0"
     inkscape:current-layer="svg1" /><image
     width="127.16566"
     height="127.16566"
     preserveAspectRatio="none"
     xlink:href="../../viscous_goo_puddle.png"
     id="image1"
     x="110.52735"
     y="239.80403" /><path
     style="fill:#ffffff;fill-opacity:1"
     d="m 52.84973,114.26722 c -1.621168,-0.20307 -3.410799,-0.92737 -3.976959,-1.60955 -0.770541,-0.92844 -0.663346,-1.60636 0.426301,-2.69601 0.800626,-0.80062 3.007955,-1.88679 4.905176,-2.4137 1.897221,-0.52692 4.416772,-0.96036 5.599002,-0.9632 1.182231,-0.003 2.957445,0.42721 3.94492,0.9557 0.987476,0.52848 1.795411,1.71683 1.795411,2.64078 0,0.92395 -0.76386,2.3712 -1.697467,3.2161 -0.981487,0.88824 -3.036943,1.47353 -4.873137,1.38764 -1.746618,-0.0817 -4.502079,-0.3147 -6.123247,-0.51776 z m 16.138975,-6.71601 -1.034702,-2.74124 -5.0403,-0.62974 c -3.076877,-0.38443 -5.740976,-1.33042 -6.839005,-2.42845 l -1.798705,-1.798705 1.478218,-2.256046 1.478218,-2.256046 h -1.392533 c -0.765893,0 -4.153757,1.039322 -7.528587,2.309605 -4.63587,1.744937 -6.570013,2.077357 -7.91103,1.359666 -0.976237,-0.522466 -1.774976,-1.585334 -1.774976,-2.361929 0,-0.776595 1.330017,-2.626773 2.955592,-4.111507 l 2.955592,-2.699516 -2.491484,-2.309029 c -1.370316,-1.269966 -2.491483,-2.968629 -2.491483,-3.774806 0,-0.806178 0.693776,-1.732005 1.541724,-2.057394 0.847948,-0.325388 4.289926,-1.043249 7.648839,-1.595246 4.58155,-0.752924 6.184189,-1.408729 6.415656,-2.625307 0.202147,-1.062472 -0.553009,-1.949235 -2.189936,-2.571593 -1.374162,-0.522455 -6.206702,-1.333568 -10.738978,-1.802471 -4.532276,-0.468904 -8.659573,-1.111552 -9.17177,-1.428108 -0.512197,-0.316555 -0.931267,-1.597211 -0.931267,-2.845902 0,-1.505934 1.595578,-3.832696 4.738948,-6.910603 3.160673,-3.094848 4.551787,-5.127991 4.176974,-6.104737 -0.309085,-0.805464 -0.561974,-1.811844 -0.561974,-2.2364 0,-0.424555 -4.284082,-3.039357 -9.520182,-5.810671 -5.2361,-2.771314 -11.814835,-5.577716 -14.61941,-6.236449 -2.804575,-0.658733 -5.830197,-1.574893 -6.7236056,-2.03591 -0.8934083,-0.461018 -1.6243788,-1.607768 -1.6243788,-2.548334 0,-0.940566 0.6439366,-2.244539 1.4309703,-2.897719 0.8427271,-0.699402 5.5169721,-1.435642 11.3706521,-1.790992 5.466825,-0.331866 10.844156,-1.097464 11.949625,-1.701328 1.105469,-0.603865 4.601028,-4.01337 7.767909,-7.576678 3.635271,-4.090331 7.495508,-7.344596 10.471175,-8.827434 3.488158,-1.738222 6.173719,-2.347345 10.332312,-2.343514 3.090506,0.0028 7.289892,0.453587 9.331969,1.001645 2.71551,0.728795 5.491605,2.822057 10.334597,7.792607 3.641952,3.737876 7.75199,7.536713 9.133419,8.441859 l 2.511688,1.645722 11.287344,0.145897 c 6.20804,0.08024 11.98602,0.457634 12.83995,0.838645 0.85394,0.381011 1.78065,1.286998 2.05936,2.013304 0.27871,0.726306 0.26039,1.962551 -0.0407,2.747211 -0.3011,0.78466 -1.85435,2.104279 -3.45168,2.932485 -1.59732,0.828207 -6.37119,1.823262 -10.60861,2.211233 -4.23741,0.387972 -8.30996,1.207985 -9.050106,1.822252 -0.740147,0.614268 -1.345722,1.524244 -1.345722,2.02217 0,0.497926 2.145011,2.887818 4.766691,5.310872 l 4.766687,4.405552 -0.88786,2.663605 c -0.61218,1.836538 -2.24601,3.340896 -5.261797,4.844849 l -4.373923,2.181244 0.590122,3.145621 0.590122,3.14562 -3.111725,1.915872 c -1.711448,1.053729 -5.513484,2.80035 -8.448969,3.88138 -2.935485,1.08103 -5.337245,2.536088 -5.337245,3.233461 0,0.916775 1.401859,1.267953 5.061515,1.267953 2.783834,0 6.135428,0.489307 7.447988,1.087349 1.312559,0.598043 2.631949,2.065408 2.931976,3.260812 0.306029,1.219318 0.0074,2.821847 -0.680271,3.65043 -0.674176,0.812333 -2.287184,1.915644 -3.584463,2.451804 -1.297279,0.536159 -4.656024,1.501882 -7.463879,2.146051 l -5.105191,1.171217 4.455124,0.07779 c 2.450318,0.04279 5.636856,0.68889 7.081195,1.435787 1.44434,0.746896 2.895009,2.058833 3.22371,2.915414 0.328701,0.856578 0.362251,2.299058 0.07456,3.205508 -0.287695,0.90645 -1.821437,2.10069 -3.408316,2.65388 -1.586879,0.55319 -3.56006,1.0058 -4.384847,1.0058 -0.824788,0 -3.058279,0.8354 -4.963315,1.85643 -1.905036,1.02104 -4.545742,1.85644 -5.868236,1.85644 -1.810856,0 -2.660001,-0.67681 -3.439235,-2.74124 z m 5.604987,-12.75007 c -0.893409,-0.233472 -2.35535,-0.233472 -3.248758,0 -0.893408,0.233472 -0.162438,0.424494 1.624379,0.424494 1.786817,0 2.517787,-0.191022 1.624379,-0.424494 z M 56.783388,35.013286 c 0.347344,-0.562013 -0.215003,-1.868379 -1.249659,-2.903035 -1.168406,-1.168405 -3.221643,-1.924261 -5.41892,-1.994861 -2.631611,-0.08456 -3.619603,0.28719 -3.857388,1.451391 -0.196421,0.961683 0.686276,2.110383 2.289573,2.97954 1.435077,0.777964 3.733248,1.431204 5.107046,1.451644 1.373799,0.02044 2.782005,-0.422665 3.129348,-0.984679 z m 19.074391,-0.424168 c 1.771245,-0.915946 2.678701,-2.02178 2.475532,-3.016703 -0.239032,-1.170544 -1.222015,-1.541735 -3.858473,-1.457025 -2.197277,0.0706 -4.250515,0.826456 -5.41892,1.994861 -1.034656,1.034656 -1.597003,2.341022 -1.24966,2.903035 0.347344,0.562014 1.671869,1.021843 2.943389,1.021843 1.271521,0 3.57018,-0.650705 5.108132,-1.446011 z"
     id="path1" /></svg>
