<svg width="128" height="128" viewBox="0 0 128 128" fill="none" xmlns="http://www.w3.org/2000/svg">
<g clip-path="url(#clip0_13382_13230)">
<g clip-path="url(#clip1_13382_13230)">
<path d="M67.9998 4C67.9998 4 46.8998 19 18.7998 32.2C18.7998 37.9 19.0998 43.2 19.6998 48.3H87.2998L77.2998 65.3H112.9C115.5 55.7 117.1 44.8 117.1 32.3C89.0998 19 67.9998 4 67.9998 4ZM57.2998 76.5H26.7998C40.7998 111.5 67.9998 124 67.9998 124C67.9998 124 95.5998 111.4 109.4 76L47.2998 93.5L57.2998 76.5Z" fill="white"/>
<path d="M42.9999 62.3999C42.9999 62.3999 38.6999 55.3999 25.8999 55.3999C10.5999 55.3999 7.3999 55.3999 7.3999 55.3999V62.3999V69.3999C7.3999 69.3999 10.5999 69.3999 25.8999 69.3999C38.6999 69.3999 42.9999 62.3999 42.9999 62.3999Z" fill="white"/>
</g>
</g>
<defs>
<clipPath id="clip0_13382_13230">
<rect width="128" height="128" fill="white"/>
</clipPath>
<clipPath id="clip1_13382_13230">
<rect width="128" height="128" fill="white"/>
</clipPath>
</defs>
</svg>