<svg width="128" height="128" viewBox="0 0 128 128" fill="none" xmlns="http://www.w3.org/2000/svg">
<path d="M15.6246 117.769C13.2814 120.112 9.48226 120.112 7.13911 117.769C4.79596 115.426 4.79613 111.627 7.13928 109.284L33.3944 83.0284L7.7465 68.6545C7.02347 68.2493 7.07893 67.1909 7.84036 66.8635L42.0994 52.1321C42.4017 52.0021 42.6207 51.7317 42.685 51.4089L49.9717 14.8357C50.1336 14.0228 51.1573 13.7485 51.704 14.3715L75.2355 41.1873L110.377 6.04597C112.72 3.70328 116.519 3.70343 118.862 6.04642C121.205 8.38942 121.204 12.1885 118.862 14.5317L15.6246 117.769Z" fill="#CE90FF"/>
<path d="M44.2086 124.801L42.1571 102.55L105.292 39.4154L114.205 38.3633C115.028 38.2661 115.605 39.155 115.181 39.8674L96.1243 71.9222C95.9561 72.2052 95.9378 72.5527 96.0755 72.8517L111.678 106.723C112.024 107.476 111.358 108.299 110.549 108.117L74.1741 99.8977C73.853 99.8252 73.5169 99.9153 73.2751 100.139L45.883 125.444C45.2741 126.006 44.2847 125.627 44.2086 124.801Z" fill="#CE90FF"/>
</svg>