<svg width="128" height="128" viewBox="0 0 128 128" fill="none" xmlns="http://www.w3.org/2000/svg">
<path d="M9.51518 108.266H46.7033V108.147V108.029L38.8617 93.5336L20.2082 88.8999C15.0993 87.593 12.0102 82.4841 13.3172 77.3752C14.3865 73.0979 18.1884 70.1276 22.5845 70.1276C23.2974 70.1276 24.129 70.2464 24.8419 70.3652L47.535 75.9494C50.1488 76.5435 52.4063 78.3256 53.5944 80.7019L60.7231 93.89H78.3073L63.4558 67.8702C60.8419 63.3553 62.5053 57.5336 67.0201 54.9197C68.4459 54.088 70.1092 53.7316 71.6538 53.7316C75.0993 53.7316 78.1884 55.6326 79.9706 58.6029L100.169 94.2464C100.882 95.4346 101.238 96.8603 101.357 98.286C101.357 98.5237 101.357 98.6425 101.357 98.8801V101.494C104.089 98.6425 107.773 96.8603 111.931 96.5039C103.971 44.7019 59.1785 4.8999 5.11914 4.8999V109.336C6.54488 108.623 7.97062 108.266 9.51518 108.266Z" fill="white" fill-opacity="0.5"/>
<path d="M69.4297 58.9833C71.7133 57.6893 74.6135 58.4915 75.9075 60.775L96.1055 96.4186C96.6022 97.2952 96.7901 98.2626 96.7038 99.1951V122.583H51.5553V122.524H9.51517C6.89045 122.524 4.7627 120.396 4.7627 117.771C4.7627 115.147 6.89045 113.019 9.51517 113.019H51.5553V106.637C51.331 106.38 51.1312 106.093 50.9615 105.781L42.1019 89.449L21.4488 84.3668C18.9002 83.7396 17.3425 81.1651 17.9696 78.6164C18.5968 76.0677 21.1713 74.51 23.72 75.1372L46.4131 80.7213C47.7124 81.0411 48.8168 81.8938 49.4549 83.07L57.9996 98.8211L86.542 98.8211L67.638 65.4611C66.344 63.1775 67.1461 60.2773 69.4297 58.9833Z" fill="white"/>
<path d="M125.238 113.019C125.238 119.581 119.919 124.9 113.357 124.9C106.795 124.9 101.476 119.581 101.476 113.019C101.476 106.457 106.795 101.138 113.357 101.138C119.919 101.138 125.238 106.457 125.238 113.019Z" fill="white"/>
</svg>