<svg version="1.2" xmlns="http://www.w3.org/2000/svg" viewBox="0 0 1730 274" width="1730" height="274"><style>.a{fill:#ebdebe}.b{fill:#333632}</style><path class="a" d="m125 17.7c-1.4 0.2-5.4 1.1-9 1.9-3.6 0.9-9 2.3-12 3.2-3 0.9-9.1 3.4-13.5 5.5-4.4 2.1-10.3 5.3-13 7-2.8 1.7-8.2 5.7-12 8.8-3.8 3.1-9.9 8.7-13.5 12.6-3.6 3.8-8.6 10.1-11.1 13.9-2.6 3.8-6.3 10-8.2 13.9-2 3.9-4.9 11.1-6.6 16-1.6 4.9-3.7 13.1-4.6 18-0.8 4.9-1.5 11.1-1.5 13.8v4.7l15.4-0.5c1.8-13.9 2.9-20.3 3.5-23 0.6-2.8 1.5-5.9 2-7 0.5-1.1 1.7-4.3 2.6-7 1-2.8 3.9-8.6 6.4-13 2.5-4.4 7-10.9 9.9-14.5 2.9-3.6 8.3-9.1 12-12.4 3.7-3.2 8.9-7.3 11.7-9.1 2.7-1.8 8.2-4.8 12-6.8 3.8-1.9 10.8-4.6 15.5-6 4.7-1.4 11.2-3 14.5-3.6 3.3-0.6 7.8-1.2 10-1.4l4-0.2v-15c-9.3-0.2-13.1-0.1-14.5 0.2zm20.2 7l0.3 7.8c10.1 1 16.2 2 20 2.9 3.8 0.9 9.7 2.6 13 3.8 3.3 1.2 8.9 3.7 12.5 5.6 3.6 1.9 9.2 5.3 12.5 7.5 3.3 2.3 9.6 7.7 14.1 12.1 4.4 4.5 9.8 10.8 12.1 14.1 2.2 3.3 5.6 9.1 7.5 13 2 3.9 4.9 11.1 6.6 16 1.8 5.3 3.3 12.3 3.7 17 0.3 4.4 0.8 9 1.1 10.3 0.4 2.1 0.9 2.2 8.4 2.2h8c-0.6-8.1-1.3-13.6-2-17.5-0.6-3.9-1.8-9.5-2.6-12.5-0.9-3-2.9-9.1-4.6-13.5-1.7-4.4-5.3-11.6-7.9-16-2.6-4.4-7.6-11.6-11.2-16-3.5-4.4-9.1-10.3-12.3-13.1-3.2-2.8-8.8-7.2-12.4-9.8-3.6-2.6-10.6-6.7-15.5-9.1-4.9-2.4-11.9-5.4-15.5-6.6-3.6-1.1-10.6-2.9-15.5-4-4.9-1-11.6-1.9-14.8-1.9h-5.8zm1197.3 16.3c-0.7 0.7 0 3.4 1.7 7.7 1.5 3.7 3.3 9.7 4.2 13.2 0.8 3.6 2 9.7 2.6 13.5 0.8 5.1 1 23.2 0.6 63.5-0.3 31.1-0.6 58.2-0.8 60.2-0.2 2-0.6 3.5-1 3.3-0.5-0.3-1 1.5-1.4 3.8-0.3 2.3-1 5.6-1.6 7.2-0.6 1.7-2.1 5.4-3.4 8.3-1.3 2.9-2.2 5.7-1.9 6.2 0.3 0.7 12.7 1 34 1 25.8 0 33.6-0.2 34.1-1.2 0.3-0.7-1-5.1-2.9-9.8-1.9-4.6-4.4-11.8-5.6-16-1.1-4.1-2.8-12.4-3.6-18.5-0.8-6-1.5-14.3-1.5-18.5 0-4.1 0.7-11.5 1.5-16.5 1-5.6 2.9-11.7 5-16.2 1.9-4 4.1-7.2 4.8-7.2 0.6 0 3.5 4.8 6.4 10.7 2.8 5.9 7.8 16.4 11.1 23.2 3.3 6.9 7.4 16.4 9.2 21 1.7 4.7 3.6 9.4 4 10.5 0.4 1.2 1.7 5.2 2.8 9 1.2 3.9 2.6 9.3 3.2 12 0.6 2.8 1.7 7.7 2.4 11l1.3 6c48.9 0.4 62.2 0.1 62.8-0.4 0.7-0.6-1.9-5.9-7.3-15.2-4.6-7.9-12.7-23.1-18.1-33.9-5.3-10.7-12-24.4-14.8-30.5-2.9-6-7.3-15.5-9.8-21-2.6-5.5-5.7-12.2-7-15-1.2-2.7-4.1-9-6.5-14-2.3-4.9-4-9.8-3.8-10.9 0.2-1.2 8.6-8.5 21.3-18.3 11.6-9 23.7-18.1 27-20.2 3.3-2.2 6.8-4.7 7.8-5.7 1.7-1.8 1.7-1.9-0.5-2.6-1.3-0.5-13-0.7-26.2-0.5-20 0.2-24 0.5-24.6 1.7-0.5 0.9-1.4 3.6-2.1 6-0.7 2.5-2.4 7.2-3.9 10.5-1.4 3.4-4.8 9.4-7.5 13.5-2.6 4.2-12.8 19.7-22.5 34.5-9.7 14.9-19.7 30.4-22.2 34.5-2.4 4.2-7.2 13.9-10.5 21.5-3.4 7.7-7.3 16.7-8.8 20-1.4 3.4-2.3 4.7-1.9 3 0.4-1.6 1-4.8 1.5-7 0.4-2.1 1.3-6.6 1.9-10 0.7-3.3 1.6-7.8 2-10 0.5-2.1 1.3-6.4 1.9-9.5 0.6-3 1.6-7.5 2.1-10 0.6-2.4 1.4-6.7 2-9.5 0.5-2.7 1.8-9.2 3-14.5 1.1-5.2 2.5-11.9 3-15 0.5-3 1.5-7.9 2.3-11 0.8-3 2-8.1 2.7-11.5 0.7-3.3 2.3-9.6 3.5-14 1.2-4.3 3-9.5 4-11.5 1-1.9 2.6-4.7 3.6-6.2 1.1-1.5 1.9-3.4 1.9-4.3 0-1.3-4-1.5-30.3-1.5-19.8 0-30.6 0.4-31.2 1.1zm-1322.5 105.2c0 2.3 0.7 8.3 1.5 13.2 0.9 5 2.5 12.2 3.7 16 1.2 3.9 3.9 10.9 6.1 15.5 2.2 4.7 6.6 12.4 9.7 17 3.1 4.7 9.9 12.8 15.1 17.9 5.3 5.3 13.5 12.2 18.9 15.7 5.2 3.5 10.7 6.6 12.3 6.9 1.5 0.3 2.7 1 2.7 1.5 0 0.6 0.6 1.1 1.3 1.1 0.6 0 2.6 0.7 4.2 1.5 1.7 0.9 4.4 1.6 6 1.7 1.7 0.2 3.3 0.7 3.7 1.2 0.4 0.6 3.1 1.6 6 2.4 2.9 0.7 7.6 1.7 10.3 2.1 2.8 0.5 7.8 0.9 11.3 1 5.6 0 6.3-0.2 6.8-2.2 0.3-1.2 0.3-4.6 0-7.5l-0.6-5.3c-8.9-0.7-13.7-1.5-16.5-2-2.7-0.6-8.1-2-12-3.2-3.8-1.1-9.1-3.1-11.7-4.4-2.7-1.3-4.8-2.1-4.8-1.9 0 0.3-1-0.4-2.2-1.5-1.3-1.1-2.6-2-3-2-0.5 0-3.4-1.7-6.5-3.8-3.2-2.2-8.9-6.8-12.7-10.3-3.8-3.5-9.4-9.7-12.5-13.9-3.1-4.1-7.5-11.3-9.8-16-2.3-4.6-4.8-10.5-5.7-13-0.8-2.4-2.2-7.1-3-10.5-0.9-3.3-1.9-9.4-2.3-13.7l-0.8-7.8h-15.5zm228.6-2c-0.3 1.3-0.8 5.4-1.1 9.3-0.3 3.9-1.7 10.6-3 15-1.3 4.4-3.8 11.1-5.6 15-1.7 3.9-3 7.2-2.9 7.5 0.1 0.3-0.2 0.7-0.6 1-0.5 0.3-3 3.6-5.6 7.5-2.6 3.9-8 10.3-12 14.3-4 4-10 9.2-13.3 11.7-3.3 2.5-10 6.5-15 8.9-4.9 2.5-12.4 5.4-16.5 6.6-4.1 1.1-8.8 2.5-10.5 3-1.6 0.5-4.8 1-7 1-2.2 0-5.5 0.3-7.3 0.7l-3.2 0.8v14.5c10.5-0.1 15.5-0.5 18-1 2.5-0.5 6.8-1.4 9.5-2 2.8-0.6 5.9-1.5 7-1.9 1.1-0.5 4.8-1.9 8.2-3.2 3.4-1.3 5.9-2.8 5.6-3.4q-0.5-0.9 0.3-0.3c0.5 0.4 2.2 0.3 3.7-0.3 1.8-0.6 2.5-1.3 2-2.2-0.5-0.7-0.4-0.9 0.2-0.5 0.6 0.4 3.7-0.9 7-2.8 3.3-2 8-5.2 10.5-7.2 2.5-2 7.7-6.7 11.5-10.3 3.9-3.7 9.6-10.2 12.7-14.5 3.1-4.4 7.6-12 10.1-16.9 2.4-4.9 5.1-10.8 6-13 0.8-2.2 2.2-6.5 3.1-9.5 0.9-3 2.1-8.6 2.7-12.5 0.6-3.9 1.3-9.4 1.5-12.3l0.4-5.2c-15.4 0-16 0.1-16.4 2.2z"/><path class="b" d="m139.8 25.3l-0.3 7.2c-6.2 0.4-10.7 1-14 1.6-3.3 0.6-9.8 2.2-14.5 3.6-4.7 1.4-11.7 4.1-15.5 6-3.9 2-9.3 5-12 6.8-2.8 1.8-8 5.9-11.7 9.1-3.7 3.3-9.1 8.8-12 12.4-2.9 3.6-7.4 10.1-9.9 14.5-2.5 4.4-5.4 10.3-6.4 13-0.9 2.7-2.1 5.9-2.6 7-0.5 1.1-1.4 4.2-2 7-0.6 2.7-1.7 9.1-2.3 14l-1.2 9c-13.1 0.5-13.4 0.6-13.4 3 0 2.4 0.2 2.5 6.7 2.5h6.8c1.2 12 2.2 18.2 3.1 21.5 0.8 3.3 2.2 8 3 10.5 0.9 2.5 3.4 8.3 5.7 13 2.3 4.7 6.7 11.9 9.8 16 3.1 4.1 8.7 10.4 12.5 13.9 3.8 3.5 9.5 8.1 12.6 10.2 3.2 2.2 6.1 3.9 6.5 3.9 0.5 0 1.8 0.9 3 2 1.3 1.1 2.3 1.8 2.3 1.5 0-0.3 2.1 0.6 4.7 1.9 2.7 1.3 7.9 3.3 11.8 4.4 3.8 1.1 9.2 2.5 12 3.1 2.7 0.6 7.6 1.3 10.7 1.6l5.8 0.5c0.9 8.1 0.9 11.4 0.6 12.5-0.5 1.7-0.1 2 2.4 1.7l3-0.2v-13.5c5-1.2 8.3-1.5 10.5-1.5 2.2 0 5.3-0.5 7-1 1.6-0.5 6.4-1.9 10.5-3 4.1-1.2 11.6-4.1 16.5-6.6 4.9-2.4 11.7-6.4 15-8.9 3.3-2.5 9.3-7.7 13.3-11.7 4-4 9.4-10.4 12-14.3 2.6-3.9 5.1-7.2 5.5-7.5 0.5-0.3 0.8-0.7 0.7-1-0.2-0.3 1.2-3.6 2.9-7.5 1.8-3.9 4.3-10.6 5.6-15 1.3-4.4 2.7-11.1 3-15 0.3-3.9 0.8-8 1.1-9.3 0.4-2 0.9-2.2 7.9-2.2 7.3 0 7.5-0.1 7.5-2.5 0-2.4-0.2-2.5-7.5-2.5-7 0-7.5-0.2-7.9-2.3-0.3-1.2-0.8-5.8-1.1-10.2-0.4-4.7-1.9-11.7-3.7-17-1.7-4.9-4.6-12.1-6.6-16-1.9-3.9-5.3-9.7-7.5-13-2.3-3.3-7.7-9.6-12.1-14.1-4.5-4.4-10.8-9.8-14.1-12.1-3.3-2.2-8.9-5.6-12.5-7.5-3.6-1.9-9.2-4.4-12.5-5.6-3.3-1.2-9.2-2.9-13-3.8-3.9-0.9-9.9-1.9-13.5-2.3l-6.5-0.6c-0.5-14.2-0.6-14.5-3-14.5-2.3 0-2.4 0.3-2.7 7.2z"/><path fill-rule="evenodd" class="a" d="m1070.3 33.1c7-0.1 13.8 0.5 17 1.3 2.8 0.8 7.2 2.2 9.7 3.2 2.5 0.9 7.8 4 11.9 6.8 4.1 2.8 9.7 7.9 12.5 11.3 2.8 3.4 6.2 8.3 7.5 11 1.3 2.6 2.7 5.7 3.1 6.8 0.4 1.1 1.3 3.4 1.8 5 0.6 1.6 1.6 5.4 2.1 8.2 0.6 2.9 1.1 7.7 1.1 10.5-0.1 2.9-0.7 7.8-1.4 10.8-0.8 3-2.1 7.7-3 10.5-1 2.7-2.2 6.1-2.9 7.5-0.6 1.4-2.9 5.2-5.1 8.5-2.2 3.3-6.5 8.5-9.6 11.5-3.7 3.6-8.8 7.1-14.6 10-4.9 2.4-10.7 4.8-12.9 5.3-2.2 0.5-8.3 1.1-13.5 1.4-5.7 0.3-11.7 0-15-0.7-3-0.7-6.6-1.7-8-2.2-1.4-0.6-3.3-1.4-4.2-1.9-1-0.5-2.3-0.9-2.8-0.9-0.5 0-3.7-1.8-7-4-3.3-2.2-5.8-4.4-5.5-5 0.3-0.6-0.1-0.7-0.7-0.4-0.8 0.3-3.9-2.2-7.3-5.9-3.7-3.9-7.5-9.5-9.9-14.3-2.2-4.3-4.4-9.5-4.9-11.4-0.5-1.9-1.2-6-1.7-9-0.4-3-0.6-8.9-0.3-13 0.3-4.1 1.4-10.2 2.5-13.5 1.1-3.3 2.9-8 4-10.5 1.1-2.5 3.7-7 5.8-10 2-3 6.6-8.2 10.2-11.5 3.6-3.3 8.7-7.1 11.4-8.4 2.7-1.4 7.8-3.5 11.4-4.7 5.2-1.8 8.8-2.3 18.3-2.3zm-102.8 7.9c29.3 0 31.5 0.1 31.5 1.7 0 1-0.8 3.6-1.9 5.8-1 2.2-2.8 7.1-3.9 11-1.1 3.9-2.5 10.8-3.1 15.5-0.9 6-1.1 27-0.6 135.5l18-0.1c13.6-0.1 20.9-0.6 30-2.2 6.6-1.2 15.4-3.1 19.5-4.3 4.1-1.1 10.4-3.2 14-4.5 3.6-1.4 10.5-4.4 15.4-6.7 4.9-2.3 12.8-6.8 17.5-9.9 4.7-3.2 11.9-8.8 15.9-12.5 4.7-4.4 7.7-6.4 8.3-5.8 0.5 0.6 1.4 3.9 2 7.5 0.6 3.6 1.5 8.3 2.1 10.5 0.6 2.2 2 6.7 3.1 10 1 3.3 3.7 9.4 5.8 13.5 2.1 4.1 6.5 10.8 9.9 14.8 3.3 3.9 6 7.6 6 8.2 0 0.6-0.3 1.2-0.7 1.4-0.5 0.3-31.4-0.2-68.8-1-37.4-0.7-86.8-1.7-109.8-2.1-23.1-0.5-42.1-1.1-42.3-1.5-0.2-0.5 0-1.4 0.5-2 0.5-0.7 2.1-4.7 3.5-8.8 1.4-4.1 3.2-10.8 4.1-14.7 1.3-6.1 1.5-16.8 1.5-66.5 0-48.8-0.3-60.6-1.5-66.5-0.8-4-2.2-9.4-3.1-12-0.9-2.7-2.5-6.5-3.5-8.5-1.1-2.1-1.7-4.2-1.4-4.8 0.4-0.6 12.1-1 32-1zm289-3.6c9.3 0.2 18.6 0.6 20.5 1 1.9 0.4 5.5 1.2 8 1.8 2.5 0.5 7.2 1.9 10.5 3 3.3 1.1 6.9 2.3 8 2.8 1.1 0.4 6.4 2.9 11.8 5.4 7.1 3.4 10 5.3 10.7 7.1 0.6 1.5 1 14.3 1 31 0 18-0.4 28.7-1 29-0.5 0.3-0.8 1.4-0.5 2.5 0.3 1.1 0.1 1.8-0.5 1.5-0.5-0.3-1-1.2-1-2 0-0.8-0.4-1.6-0.8-1.7-0.4-0.2-3.5-5.7-6.8-12.3-3.4-6.6-7.7-14.5-9.6-17.5-2-3-5-7.3-6.7-9.5-1.8-2.2-6-6.9-9.4-10.4-3.4-3.5-8.7-8.3-11.7-10.6-3-2.4-8.4-5.8-12-7.7-3.6-1.9-8.5-4-11-4.7-2.5-0.7-5.8-1.7-7.5-2.2-1.7-0.5-6.8-0.9-11.5-0.9-4.7 0-10.7 0.7-13.5 1.6-2.7 0.8-7.2 2.9-9.9 4.7-2.7 1.8-7.2 5.7-10 8.7-2.8 3.1-6.4 8.3-8 11.5-1.6 3.3-3.8 8.7-4.8 12-1.4 4.1-2.1 10.2-2.5 19.5-0.4 8.6-0.1 16.6 0.7 22 0.7 4.7 2.4 11.9 3.8 16 1.3 4.1 3.3 9.2 4.3 11.3 1.1 2 1.6 4.3 1.2 5-0.5 0.7-0.4 0.9 0.2 0.5 0.6-0.4 2.6 1.6 4.5 4.5 1.9 2.9 6.2 8.1 9.5 11.6 3.3 3.5 8.5 8.3 11.5 10.6 3 2.3 9.3 6 14 8.3 4.7 2.3 11.9 5.1 16 6.2 4.3 1.2 12.2 2.3 18.5 2.7 8 0.4 13 0.1 18.5-1 4.1-0.8 10-2.5 13-3.6 3-1.2 7.5-3.5 10-5.1 2.5-1.7 6-4 7.9-5.3 1.9-1.2 5-4.6 7-7.4 2-2.9 3.9-4.9 4.3-4.5 0.4 0.4-1.1 4.1-3.3 8.2-2.3 4.1-5.6 9.8-7.4 12.5-1.9 2.8-6.2 7.8-9.7 11.1-3.5 3.4-9.7 8.4-13.8 11.1-4.1 2.7-8.8 5.5-10.5 6.2-1.7 0.7-3.6 1-4.2 0.7-0.7-0.3-1.2-0.1-1 0.5 0.1 0.6-2.5 2-5.8 3-3.3 1.1-9.6 2.5-14 3.1-4.5 0.6-13.9 0.8-21.5 0.5-9.1-0.4-16.1-1.2-21.5-2.7-4.4-1.2-10.5-3.1-13.5-4.3-3-1.1-8-3.4-11-5.1-3-1.6-8.2-4.7-11.5-6.9-3.3-2.1-9.6-7.6-14-12.2-5-5.1-9.8-11.4-12.8-16.6-2.6-4.6-6-12.5-7.6-17.4-1.6-4.9-3.5-13.1-4.2-18-0.7-5.5-0.9-13.5-0.5-20.5 0.3-6.3 1.2-13.7 2-16.5 0.8-2.7 2.1-6.8 2.9-9 0.8-2.2 2.6-6.4 4.1-9.2 1.4-2.9 5.3-9 8.5-13.5 3.3-4.6 8.5-10.6 11.8-13.4 3.2-2.7 8.5-6.8 11.8-9 3.3-2.2 8.9-5.4 12.5-7.1 3.6-1.7 8.3-3.7 10.5-4.4 2.2-0.7 9.8-2.5 17-4 11.7-2.5 14.6-2.7 30-2.5zm-1117 1.1l0.3 26c0.2 14.3 0 27.9-0.3 30.3-0.5 4.1-0.6 4.2-4.7 4.8-2.4 0.3-5.4 0.7-6.8 0.8-1.4 0.2-3.8 0.9-5.5 1.6-1.6 0.6-4.3 1.8-9 3.8l-15.7-15.6c-10.6-10.6-16.2-17-17.2-19.7-0.9-2.2-1.6-5.5-1.6-7.3 0-2.4 0.8-3.9 3.4-6 1.9-1.5 7.4-4.8 12.3-7.3 4.8-2.6 11.5-5.6 14.8-6.8 3.3-1.1 9.2-2.7 13-3.5 3.9-0.8 9.3-1.3 17-1.1zm5.5-0.5h4.3c2.3 0 7.6 0.7 11.7 1.5 4.1 0.9 9.8 2.3 12.5 3.2 2.8 0.8 9.1 3.5 14 5.9 5 2.4 11.6 6.4 14.8 8.9 5.3 4.2 5.7 4.7 5.1 7.7-0.4 1.8-1.5 4.9-2.4 6.8-1 1.9-8.8 10.5-17.4 19-11.9 11.8-15.8 15.2-16.8 14.4-0.7-0.6-3.3-1.8-5.8-2.7-2.5-1-7.6-2.2-11.5-2.8-3.8-0.5-7.3-1.2-7.7-1.5-0.5-0.2-0.8-13.9-0.8-30.4zm901.7 10.3c-1 1.2-2.6 4-3.6 6.2-1.1 2.2-2.4 6.1-3 8.7-0.6 2.7-1.1 8.7-1.1 13.5 0 4.9 0.7 11.9 1.6 15.8 0.9 3.9 1.9 8.3 2.2 9.9 0.4 1.5 1 3 1.4 3.2 0.5 0.2 0.8 1.2 0.8 2.1 0 1 0.6 3.2 1.4 4.8 0.7 1.6 2.2 4.8 3.2 7 1 2.2 3.4 6.5 5.5 9.5 2 3 5.4 7.5 7.6 10 2.2 2.5 6.4 6.1 9.4 8.1 3 1.9 7.4 4.1 9.9 4.8 3.2 0.8 5.4 0.9 7.5 0.2 1.7-0.5 4.4-2.5 6.1-4.3 1.6-1.8 4-5.9 5.2-9.1 1.3-3.5 2.4-9.1 2.8-14.5 0.3-4.8 0.1-12.1-0.4-16.2-0.5-4.1-1.7-10.4-2.7-14-0.9-3.6-4.1-11.4-7.1-17.5-2.9-6.1-7.5-13.5-10.1-16.6-2.7-3-6.4-6.9-8.3-8.6-1.9-1.7-5.8-4.3-8.5-5.7-2.8-1.5-6.6-2.6-8.5-2.6-1.9 0-4.8 0.7-6.5 1.6-1.7 0.8-3.8 2.5-4.8 3.7zm-333.1-1.3c14.1 0 18.4 0.3 18.4 1.2 0 0.7-1.1 4.1-2.5 7.5-1.4 3.5-3.3 9.8-4.2 14-1.6 7-1.8 14.3-1.8 67.3 0 45.4 0.3 61.2 1.3 66.5 0.8 3.9 2.3 9.9 3.4 13.5 1.1 3.6 2.7 7.7 3.4 9.2 1.1 2.3 1.2 3.1 0.2 4.3-1.1 1.4-5.4 1.6-31 1.5-16.4 0-30.5-0.2-31.3-0.5-0.8-0.3-1.5-1.2-1.5-2 0-0.8 0.7-2.5 1.5-3.8 0.8-1.2 2.6-5.8 4-10.2 1.4-4.4 2.5-9 2.5-10.3 0-1.2 0.4-3.2 0.9-4.5 0.5-1.2 1.4-12.1 2.1-24.2 0.6-12.1 1-24.8 0.5-34.6l-7 3.7c-3.9 1.9-8.8 4.7-11 6.2-2.2 1.4-5.4 3.5-7.1 4.6-1.7 1.2-5.8 4.6-9 7.6-3.3 3-6.8 6.6-7.9 8-1.5 1.8-2.5 5.3-3.4 12.5-1 8-1.1 11.9-0.1 19.5 0.7 5.2 1.6 10.3 2.1 11.3 0.5 0.9 1 3 1.2 4.6 0.1 1.6 0.4 2.8 0.7 2.5 0.3-0.2 1.3 1.3 2.4 3.4 1 2 1.6 4.3 1.2 5-0.5 0.9-17.5 1.2-79.8 1.2-71.8 0.1-79.4-0.1-80.8-1.5-1.3-1.5-1.2-2.1 0.9-6.3 1.3-2.6 2.8-6.3 3.3-8.2 0.5-1.9 1.5-6.4 2.3-10 1.2-5.3 1.5-17.7 1.5-67 0-39.5-0.4-61.9-1.1-64.5-0.6-2.2-1.6-5.8-2.2-8-0.6-2.2-2.1-6.6-3.4-9.8-1.9-4.6-2.1-6-1-7.2 1-1.4 8.1-1.5 57.2-1.5 30.8 0.1 57.8 0.3 64 1.1l1.2 7.2c0.7 4 1.4 12.7 1.5 19.4 0.2 6.7 0 12.4-0.5 12.7-0.4 0.3-1.3 0-2-0.6-0.7-0.7-3-4.2-5.2-7.8-2.1-3.6-6.6-9.2-10-12.5-3.4-3.3-8.8-7.6-12.1-9.5-3.2-1.9-8.2-4-10.9-4.7-2.8-0.7-7-1.3-9.5-1.3-2.6 0-6.7 1-9.5 2.3-2.8 1.3-6 3.6-7.1 5.3-1.2 1.6-2.9 4.7-3.8 6.9-1 2.5-1.6 6.8-1.6 11.3 0 3.9 0.5 7.4 1 7.7 0.5 0.3 1 1.2 1 2 0 0.8 1.2 3.3 2.7 5.6 2 2.8 4.6 4.9 8.8 6.9 3.3 1.6 7.4 3.2 9 3.6 1.6 0.4 9.3 0.9 17 1.1 8.4 0.2 14.5-0.1 15.2-0.7 0.9-0.7 1.8-0.6 2.8 0.3 1.3 1 1.6 3.9 1.5 16.9 0 9.3-0.5 16.7-1.1 18.1-1 2.1-1.4 1.9-8.7-5.4-4.3-4.2-10.4-9.6-13.7-12.1-3.3-2.5-10-6.6-15-9.1-5-2.4-10.6-5.2-12.5-6-1.9-0.8-4.5-1.8-8-2.7v45.8c0 37 0.2 46.4 1.4 49.2 0.7 1.9 3.1 5 5.2 6.9 2.2 1.9 5.3 4 6.9 4.7 1.6 0.7 5.6 1.7 8.7 2.3 4.2 0.8 7.4 0.8 11.5 0 3.2-0.6 7.8-2.1 10.3-3.4 2.5-1.3 7.7-5.6 11.6-9.7 3.9-4 9.6-10.7 12.6-14.8 3.1-4.1 9.8-14.7 14.9-23.5 5.1-8.8 13.1-21.4 17.8-28 4.8-6.6 9.3-13 10.1-14.2 0.8-1.1 3.6-5 6.1-8.5 2.5-3.4 10.5-14.9 17.9-25.3 7.3-10.4 15.8-22.6 18.8-27 3-4.4 6.2-8.8 7-9.8 1.3-1.5 3.6-1.7 19.8-1.7zm-41.7 45.8c-2 2.6-7.4 11.5-12 19.7-4.6 8.3-9.9 18.4-11.7 22.5-1.8 4.1-4 9.5-4.8 12-0.9 2.5-2 6-2.5 7.8-0.5 1.7-0.7 3.2-0.4 3.2 0.3 0 3.8-2.5 7.8-5.5 3.9-3 10.1-7.1 13.7-9 3.6-1.9 7.6-4.1 9-4.9 1.4-0.8 3.9-2.1 5.6-2.8 3.1-1.3 3.2-1.5 3.8-8.8 0.3-4.1 0.8-16.4 1.2-27.2 0.4-10.9 0.4-19.8 0.1-19.8-0.3 0-1.9 1.8-3.4 4.1-1.5 2.2-4.4 6.1-6.4 8.7zm102.4-45.8c13.3 0.1 32.7 0.5 43.2 1 10.5 0.5 20.8 1.4 23 2 2.2 0.6 5.8 1.5 8 2.1 2.2 0.6 6.5 2 9.5 3.1 3 1.1 7.5 3 10 4.2 2.5 1.2 7 3.6 10 5.3 3 1.7 8.6 6 12.5 9.6 3.9 3.5 8.9 8.8 11.2 11.8 2.3 3 6 9 8.2 13.4 2.2 4.4 5 11.8 6.3 16.5 1.9 7.1 2.2 11 2.2 23.5-0.1 13.3-0.4 16-2.8 24-1.5 4.9-4.3 12.1-6.2 16-2 3.9-5.1 9-6.9 11.5-1.8 2.5-6.1 7.2-9.6 10.4-3.5 3.2-8.4 7.3-10.9 8.9-2.5 1.7-8.3 5-13 7.3-4.7 2.3-11.9 5.3-16 6.7-4.1 1.3-9.5 3-12 3.5-2.5 0.6-6.8 1.6-9.5 2.1-2.8 0.6-9 1.1-14 1.1-5 0-11 0.1-13.5 0.1-2.5 0-15.5 0.2-29 0.5-19 0.3-24.7 0.1-25.2-0.8-0.4-0.7 0-2.7 0.9-4.3 0.9-1.6 2-3.8 2.4-4.7 0.5-1 0.9-2.7 0.9-3.8 0-1.1 0.5-2.2 1-2.5 0.5-0.3 1.2-2.2 1.4-4.2 0.3-2.1 1.1-7.9 2-12.8 1.2-7.3 1.5-18.7 1.6-59.5 0-30.2-0.4-53.1-1.1-57-0.5-3.6-1.5-8.7-2-11.5-0.6-2.7-1.6-6.6-2.2-8.5-0.7-1.9-2.2-5.5-3.3-8-1.2-2.5-1.9-5.1-1.7-5.7 0.4-1 6.2-1.3 24.6-1.3zm27.5 92.2c0.2 76.2 0.4 86.9 1.7 87.3 0.8 0.3 5.9-0.4 11.2-1.5 5.4-1.1 11.8-2.8 14.3-3.7 2.5-0.9 6.5-2.8 9-4.1 2.5-1.4 6.7-4.3 9.4-6.6 2.7-2.3 6.8-6.6 9.1-9.6 2.3-3 5.8-8.6 7.8-12.5 1.9-3.9 4.2-9.5 5.1-12.5 0.9-3 2.3-10 3.2-15.5 0.9-5.8 1.4-15.8 1.3-24 0-7.7-0.7-17.4-1.4-21.5-0.7-4.1-2.5-11.1-4-15.5-1.5-4.4-4.4-10.9-6.5-14.5-2.1-3.6-5.6-8.5-7.7-11-2.2-2.5-6.9-6.7-10.4-9.3-3.5-2.7-9.3-6.2-12.9-7.9-3.6-1.6-9.2-3.6-12.5-4.3-3.3-0.8-8.1-1.3-10.7-1.3-2.6 0.1-5.1 0.3-5.5 0.6-0.3 0.3-0.6 39.6-0.5 87.4zm-453.3-90.8c21.4 0.2 40.8 0.9 43 1.4 2.2 0.6 6.7 1.6 10 2.3 3.3 0.7 6.4 1.6 7 2.1 0.6 0.4 2 0.8 3.3 0.8 1.2 0 2.4 0.4 2.7 1 0.3 0.6 1.3 1 2.3 1 0.9 0 5.1 1.7 9.2 3.8 4.1 2.1 10 5.5 13 7.5 3 2 8.6 6.7 12.3 10.4 3.8 3.8 9 10.4 11.7 14.8 2.7 4.4 6 11.1 7.4 15 1.3 3.9 3 9.5 3.8 12.5 0.8 3.4 1.3 10.8 1.2 19.5-0.1 9-0.7 16-1.7 19.5-0.8 3-2.4 8.2-3.6 11.5-1.2 3.3-2.1 6.1-2.1 6.2 0 0.2-0.5 0.1-1-0.2-0.6-0.3-0.7 0.2-0.4 1.2 0.4 1.2-1.1 4.3-4.2 8.8-2.6 3.9-7 9.4-9.8 12.4-2.8 2.9-7.1 6.7-9.6 8.4-2.5 1.7-5 3.1-5.7 3.1-0.6 0.1-0.9 0.3-0.7 0.6 0.2 0.3-2 1.8-4.8 3.4-2.9 1.6-8.9 4.3-13.3 6.1-4.4 1.7-11.8 4.1-16.5 5.3-4.7 1.1-11.2 2.5-14.5 3.1-3.3 0.5-22.5 1.1-42.7 1.3-23.5 0.2-37.1-0.1-37.8-0.7-0.7-0.7-0.3-2.5 1.5-6 1.4-2.8 3.1-7.3 3.9-10 0.7-2.8 1.9-7.1 2.5-9.8 0.7-3.2 1.1-24.3 1.1-64.7 0-41-0.4-61.5-1.1-64.8-0.6-2.6-2.2-7.8-3.4-11.7-1.3-3.9-2.9-8.5-3.6-10.3-1.2-2.8-1.2-3.4 0.1-4.3 1-0.7 14.9-0.9 40.5-0.5zm11.6 91.5c-0.1 82.2 0 87.1 1.7 87.4 0.9 0.2 3.3 0 5.2-0.4 1.9-0.4 6.2-1.3 9.5-1.9 3.3-0.6 10.1-3.1 15-5.5 6.3-3 10.8-6 15.1-10.1 3.3-3.3 7.6-8.2 9.5-10.9 1.8-2.8 5-8.8 7-13.5 2-4.7 4.1-11 4.7-14 0.6-3 1.6-8.4 2.1-12 0.6-3.6 1.1-12.5 1.1-19.8 0-7.2-0.5-16.5-1.1-20.5-0.6-3.9-2-10.1-3.1-13.7-1-3.6-2.8-8.4-3.9-10.8-1-2.3-1.9-4.4-1.9-4.7 0-0.3-2.2-3.8-4.8-7.8-2.7-3.9-7.5-9.6-10.8-12.6-3.6-3.3-9.8-7.2-15.9-10.3-9.4-4.6-10.6-5-19.6-5.5l-9.6-0.6zm-292-65.8c2.1 0 4.9 0.5 6.1 1.1 1.2 0.6 9.3 8.1 18 16.7 8.7 8.6 15.7 16.1 15.7 16.7 0 0.5-9.3 7.1-41.5 28.4l-26 0.1 0.8-7.8c0.5-4.2 1.8-11.3 2.9-15.7 1.1-4.4 4-12.3 6.5-17.5 2.5-5.3 6.6-12.3 9.1-15.8 4.2-5.8 4.9-6.2 8.4-6.2zm148.3-0.1c1.9 0 3.8 0.9 5.2 2.3 1.2 1.2 3.8 5 5.9 8.3 2.1 3.3 3.8 6.5 3.9 7.2 0 0.7 0.3 1.2 0.5 1.2 0.3 0 1.6 2.4 2.9 5.3 1.3 2.9 3.2 7.7 4.2 10.8 1 3 2.6 10 3.4 15.5 0.9 5.5 1.4 10.5 1.1 11.2-0.4 0.9-4 1.3-25.1 1.3l-19-12.8c-10.4-7-19.7-13.5-20.7-14.5-1.7-1.7-1.1-2.4 13-16.4 8.1-8.1 16.3-15.7 18.2-17 1.8-1.3 4.8-2.3 6.5-2.4zm-72 37.6c4.4 0.3 8.6 1.3 11 2.6 2.2 1.1 5.8 3.9 7.9 6.2 2.1 2.3 4.7 6.5 5.7 9.4 1.1 2.9 1.9 7 2 9 0 2.1-0.8 6.2-1.7 9.3-1.3 4.2-2.9 6.7-7.2 11-4.2 4.1-7.1 5.9-11.2 7.2-3 1-7.1 1.7-9.2 1.8-2.1 0-6.3-1-9.5-2.2-3.4-1.3-7.4-3.8-9.8-6.3-2.2-2.2-4.9-5.6-5.9-7.5-1.1-2.2-2-6.3-2.2-10.8-0.2-4.7 0.2-8.7 1.1-11.5 0.9-2.3 2.6-5.7 3.8-7.4 1.2-1.8 4.5-4.7 7.2-6.5 2.8-1.8 6.4-3.6 8-4 1.7-0.4 6.2-0.5 10-0.3zm-103.5 30.5h13.3c9.8 0 13.6 0.4 14.7 1.4 0.9 0.8 7.3 5.1 14.3 9.7 7 4.6 12.4 8.7 12.1 9.1-0.4 0.4 0.1 0.8 1 0.8 0.9 0 3.9 1.7 11.6 7.5l-15.2 15.2c-8.4 8.4-16.7 15.9-18.5 16.8-1.8 0.8-4.8 1.5-6.8 1.5-2.7 0-4-0.7-6.2-3.4-1.5-1.9-4.8-7.2-7.4-11.8-2.6-4.6-5.9-11.9-7.4-16.3-1.5-4.4-3.3-11.4-4-15.5-0.8-4.2-1.4-9.2-1.4-11.3zm176.5 0.1h13.2c12-0.1 13.3 0.1 13.3 1.7 0 0.9-0.7 6-1.6 11.2-0.9 5.2-2.4 12-3.4 15-1 3-2.6 7.3-3.5 9.5-1 2.2-3.6 7.2-5.8 11-2.2 3.9-5.2 8.5-6.6 10.3-1.8 2.2-3.5 3.2-5.4 3.2-1.5 0-4.2-0.7-6-1.5-1.8-0.8-10.4-8.6-35.2-33.3l4-2.7c2.2-1.4 11.4-7.5 20.5-13.5zm-45 30.2l17.6 17.6c15 15 17.7 18.1 18.2 21.3 0.4 2.1 0.5 4.2 0.2 4.8-0.3 0.5-3.6 3.1-7.3 5.7-3.7 2.5-7.3 4.7-8 4.7-0.7 0.1-1.6 0.6-2 1.2-0.4 0.7-3.2 2.3-6.2 3.6-3 1.4-6.9 3-8.5 3.6-1.7 0.6-5.5 1.8-8.5 2.6-3 0.8-8.9 1.8-13 2.2-4.1 0.3-8 0.7-8.5 0.8-0.7 0-1.1-10.7-1.5-60.4l3.2-0.6c1.8-0.4 3.8-0.4 4.5 0 0.7 0.3 1.3 0.1 1.3-0.4 0-0.6 0.8-1 1.7-0.9 1 0.1 2.7-0.2 3.8-0.6 1.1-0.3 4.5-1.7 7.5-2.9zm-60.1 0.7c0 0 1.4 0.6 3.1 1.4 1.6 0.8 5.7 2.2 9 3 3.3 0.9 7.2 1.6 8.7 1.6 1.5 0 2.8 0.4 2.8 1 0 0.5 0.8 0.9 1.7 0.7 1.7-0.2 1.8 1.8 2.1 27.3 0.1 15.1 0 28.6-0.4 30-0.6 2.5-0.6 2.5-9.2 1.8-5.6-0.4-12.2-1.8-18.2-3.8-5.2-1.8-13.3-5.2-18-7.6-4.7-2.5-10.5-6.1-17.3-11.9l1.1-5c1-4.3 2.3-6.1 8.8-12.5 4.2-4.1 7.7-7.7 7.8-8 0-0.3 0.4-0.4 0.8-0.3 0.4 0.2 0.7-0.2 0.7-0.8-0.1-0.5 3.6-4.6 8.1-9 4.5-4.3 8.3-7.9 8.4-7.9z"/><path class="b" d="m135 123.5c-1.9 0.8-4.6 2.9-6 4.7-1.5 1.8-2.9 5.3-3.3 7.8-0.4 2.5-0.3 6.1 0.3 8 0.6 1.9 2.1 4.9 3.4 6.5 1.4 1.9 4.2 3.7 7.7 4.8 4.3 1.5 6.1 1.7 8.9 0.8 1.9-0.5 4.6-1.9 6-2.9 1.4-1 3.6-3.6 4.9-5.8 1.9-3 2.4-5.1 2.2-8.9-0.1-2.8-0.9-6.1-1.8-7.5-0.9-1.4-2.3-3.2-3.2-4.1-0.9-0.8-3.1-2.3-4.9-3.2-1.7-0.9-4.9-1.7-7-1.6-2 0-5.3 0.7-7.2 1.4z"/><path class="a" d="m1541.7 217.1q3.8 0 5.8 1.9 1.9 2 1.9 5.6 0 6.7-7.7 6.7-3.3 0-5.2-1.7-1.9-1.8-1.9-5 0-3.5 1.9-5.4 1.9-2.1 5.2-2.1zm21-45.9q6.8 0.9 15.4 0.9h21.1v4.4l-28.2 48.7h9.6q7.9 0 11.6-3.6 3.8-3.7 5.8-10.9l4 0.6q-1.8 5.9-4.5 19.3-4.4-0.6-12.7-0.6h-24.3v-3.9l28.3-49.8h-7.9q-5.7 0-9 1.7-3.3 1.7-4.8 4.7-1.4 2.9-2.3 7.7l-4.2-0.5q1.1-5.4 1.5-10.2 0.5-4.9 0.6-8.5zm47.2 59.3v-4.1q4.1-0.1 5.9-0.9 1.9-0.9 2.5-2.7 0.6-2 0.6-6v-31.8q0-3.4-0.6-4.9-0.6-1.6-2.6-2.2-1.8-0.7-5.8-0.7v-3.8l16-2.9 2.1 0.7v45.6q0 4 0.5 6 0.6 1.8 2.4 2.7 2 0.8 6 0.9v4.1q-4.9-0.2-6.2-0.2-6-0.3-7.1-0.3-1.3 0-7.2 0.3-1.3 0-6.5 0.2zm11.9-83.7q3.3 0 5 1.8 1.7 1.7 1.7 4.8 0 3.2-1.7 4.7-1.5 1.5-5 1.5-3.4 0-5-1.5-1.6-1.5-1.6-4.7 0-3.1 1.7-4.8 1.7-1.8 4.9-1.8zm55.8 23.7q8.9 0 14.2 7 5.3 7 5.3 20.4 0 10.3-3.1 17.9-3.1 7.6-8.5 11.7-5.4 4-12.4 4-5.7 0-11.2-2.1v12.6q0 4 0.6 5.9 0.8 2 2.9 2.7 2.2 0.8 7 0.9v4.2q-5.5-0.3-6.9-0.3-6.4-0.2-7.7-0.2-1.4 0-7.6 0.2l-6.4 0.3v-4.2q4-0.1 5.8-0.9 2-0.7 2.6-2.7 0.7-1.9 0.7-5.9v-57q0-3.4-0.7-4.9-0.6-1.6-2.6-2.2-1.8-0.7-5.8-0.7v-4.1l15.4-2.6 2.1 0.7v11.7q2.4-5.7 6.9-9 4.5-3.4 9.4-3.4zm-3.6 56.8q7.6 0 10.5-7.7 2.9-7.8 2.9-19.1 0-11.8-3.2-17.3-3.2-5.6-9-5.6-4.4 0-7.9 3.1-3.3 3-5.4 8.8v25.8q0 5.8 3.4 8.9 3.3 3.1 8.7 3.1z"/></svg>