<svg width="128" height="128" viewBox="0 0 128 128" fill="currentColor" xmlns="http://www.w3.org/2000/svg">
<path d="M71.9995 112C71.9995 111.77 71.9795 111.53 71.9695 111.28C71.9695 111.2 71.9495 111.11 71.9395 111.03C71.2195 104.83 64.0095 96 64.0095 96C64.0095 96 56.7895 104.83 56.0795 111.03C56.0595 111.11 56.0595 111.2 56.0495 111.28C56.0295 111.53 56.0195 111.76 56.0195 112C56.0195 112.22 56.0395 112.42 56.0495 112.6C56.3495 116.73 59.7995 120 64.0195 120C68.2395 120 71.6895 116.73 71.9895 112.6C72.0095 112.42 72.0195 112.22 72.0195 112H71.9995Z" fill="currentColor"/>
<path d="M88.6699 16C97.8599 16 105.34 22.86 105.34 31.3C105.34 42.76 94.5499 52.81 82.0499 64.46C75.8799 70.21 69.5599 76.1 64.0099 82.67C58.4599 76.1 52.1399 70.21 45.9699 64.46C33.4699 52.82 22.6799 42.76 22.6799 31.3C22.6799 22.86 30.1599 16 39.3499 16C49.0299 16 54.0199 20.88 57.9399 25.45L64.0199 32.55L70.0999 25.45C74.0199 20.88 79.0099 16 88.6899 16M88.6699 8C75.0399 8 67.9999 15.58 63.9999 20.25C59.9999 15.58 52.9599 8 39.3299 8C25.6999 8 14.6699 18.43 14.6699 31.3C14.6699 55.7 47.9699 71.27 63.9999 96C80.0299 71.27 113.33 55.7 113.33 31.3C113.33 18.43 102.29 8 88.6599 8H88.6699Z" fill="currentColor"/>
<path d="M32.96 38.5303C36.53 44.7303 43.82 51.5303 51.41 58.6003C55.48 62.3903 59.81 66.4203 64 70.7703C68.19 66.4203 72.52 62.3903 76.59 58.6003C84.18 51.5303 91.47 44.7303 95.05 38.5303H32.96Z" fill="currentColor"/>
</svg>