<?xml version="1.0" encoding="UTF-8" standalone="no"?>
<svg
   width="128"
   height="128"
   viewBox="0 0 128 128"
   fill="none"
   version="1.1"
   id="svg1"
   sodipodi:docname="health_reduction.svg"
   xml:space="preserve"
   inkscape:version="1.4.3 (0d15f75, 2025-12-25)"
   xmlns:inkscape="http://www.inkscape.org/namespaces/inkscape"
   xmlns:sodipodi="http://sodipodi.sourceforge.net/DTD/sodipodi-0.dtd"
   xmlns="http://www.w3.org/2000/svg"
   xmlns:svg="http://www.w3.org/2000/svg"><defs
     id="defs1" /><sodipodi:namedview
     id="namedview1"
     pagecolor="#505050"
     bordercolor="#ffffff"
     borderopacity="1"
     inkscape:showpageshadow="0"
     inkscape:pageopacity="0"
     inkscape:pagecheckerboard="1"
     inkscape:deskcolor="#505050"
     inkscape:zoom="1"
     inkscape:cx="112"
     inkscape:cy="128.5"
     inkscape:window-width="1920"
     inkscape:window-height="1051"
     inkscape:window-x="-9"
     inkscape:window-y="-9"
     inkscape:window-maximized="1"
     inkscape:current-layer="svg1" /><path
     d="M 69,46 H 84 V 56 H 69 V 71 H 59 V 56 H 44 V 46 H 59 V 31 h 10 z"
     fill="#00ff99"
     id="path2"
     style="display:inline;fill:#00ff99;fill-opacity:1" /><path
     d="M 115.04616,62.484401 41.624765,133.8546 c -3.9375,4.156 -5.1188,3.347 -2.636,-1.816 l 21.5391,-49.068299 c 0.4922,-1.0281 -0.0328,-1.8813 -1.1703,-1.8922 l -22.2797,-0.2078 c -1.1484,0 -1.6078,-0.8203 -1.0391,-1.8156 l 25.5141,-41.2203 c 0.5687,-0.9954 0.3719,-2.4391 -0.5141,-3.1719 -4.7468,-3.9375 -10.7297,-6.3219 -17.2156,-6.3219 -15.4656,0 -28,13.3 -28,29.6734 0,29.5313 34.2891,48.912499 53.2766,77.896599 1.564,2.396 3.8718,2.396 5.4468,0 18.9875,-28.995 53.276595,-48.365299 53.276595,-77.896599 0,-15.6406 -11.43,-28.4703 -25.9219,-29.59684 -1.1375,-0.0875 -2.537495,0.72188 -3.106195,1.71724 l -16.4703,29.0359 c -0.5688,0.9953 -0.1094,1.7937 1.039,1.7937 h 31.048395 c 1.149,0 1.433,0.6782 0.645,1.5094 z"
     fill="#00ff99"
     id="path1-5"
     sodipodi:nodetypes="cccccccccssccscccsscc"
     style="display:inline;fill:#ff410d;fill-opacity:1"
     transform="translate(-7.823165,-19.340601)" /></svg>
