<svg width="1388" height="293" viewBox="0 0 1388 293" fill="currentColor" xmlns="http://www.w3.org/2000/svg">
<path d="M1142.19 238.876C1150.81 217.328 1159.2 195.72 1168.24 174.354C1169.47 171.436 1174.45 167.614 1176.63 168.197C1179.84 169.042 1184.22 173.368 1184.4 176.426C1185.79 198.718 1195.01 218.475 1203.3 238.554C1204.27 240.888 1206.15 242.86 1207.6 244.992C1208.53 244.751 1209.48 244.489 1210.41 244.248C1211.19 237.488 1211.31 230.567 1212.89 223.988C1219.14 197.652 1225.62 171.376 1232.42 145.181C1240.14 115.425 1248.27 85.7688 1256.28 56.093C1258.58 47.5825 1265.44 43.6995 1272.83 47.4015C1275.27 48.6287 1278.17 52.391 1277.99 54.7852C1277.41 62.35 1276.88 70.4178 1273.84 77.198C1250.63 128.844 1239.34 183.951 1225.64 238.393C1223.78 245.737 1221.32 253.281 1217.39 259.659C1212.3 267.968 1206.11 268.23 1199.45 260.967C1195.96 257.164 1193.66 252.034 1191.66 247.165C1185.63 232.438 1179.98 217.53 1174.19 202.702C1173.24 202.742 1172.29 202.762 1171.35 202.802C1168.48 209.401 1165.9 216.141 1162.71 222.579C1155.02 238.152 1147.3 253.724 1139.11 269.035C1134.63 277.404 1128.7 276.7 1123.53 268.592C1108.62 245.193 1114.86 220.326 1118.06 195.7C1120.61 176.185 1124.14 156.81 1126.44 137.274C1127.95 124.398 1133.72 119.388 1142.37 125.746C1145.1 127.737 1146.99 132.908 1146.75 136.489C1145.1 162.544 1142.9 188.538 1140.7 214.552C1140.05 222.258 1138.88 229.923 1137.96 237.588C1139.37 238.031 1140.76 238.454 1142.17 238.896L1142.19 238.876Z" fill="currentColor"/>
<path d="M1299.25 178.386C1298.94 180.898 1298.6 183.411 1298.35 185.924C1296.04 209.464 1293.9 233.023 1291.34 256.543C1290.78 261.789 1289.62 268.182 1281.7 266.152C1274.65 264.322 1275.8 258.875 1276.61 253.186C1280.02 229.405 1283.03 205.564 1285.99 181.723C1286.32 179.15 1286.05 176.154 1284.96 173.843C1279 161.218 1289.68 152.514 1292.58 142.021C1292.74 141.458 1299.43 141.177 1300.4 142.584C1305.1 149.418 1310.21 156.454 1312.78 164.194C1320.34 187.03 1326.76 210.248 1333.65 233.305C1334.85 237.285 1336.17 241.245 1339.53 244.904C1340.18 237.828 1340.68 230.712 1341.48 223.656C1344.82 193.462 1347.88 163.229 1351.81 133.116C1353.8 117.918 1357.16 102.882 1360.54 87.926C1361.39 84.1468 1364.39 78.478 1367.07 78.076C1370.78 77.5131 1376.11 80.1666 1379.02 83.1015C1387.72 91.9263 1389.16 103.344 1387.27 114.963C1383.44 138.724 1376.53 162.284 1375.56 186.105C1374.42 213.765 1365.47 240.079 1364.54 267.297C1364.05 281.51 1352.8 284.485 1345.91 291.521C1341.39 296.144 1337.16 288.867 1335.68 284.264C1330.59 268.343 1326.14 252.241 1321.27 236.26C1315.82 218.369 1310.23 200.538 1304.55 182.728C1304.01 180.999 1302.55 179.552 1301.52 177.984C1300.77 178.124 1300.02 178.265 1299.27 178.406L1299.25 178.386ZM1366.42 122.301C1364.94 122.14 1363.46 121.959 1362 121.798L1354.57 189.482L1358.8 189.964C1362.35 167.531 1369.93 145.559 1366.42 122.321V122.301Z" fill="currentColor"/>
<path d="M606.244 92.5209C606.104 94.4965 606.002 96.4721 605.837 98.4477C604.716 111.333 603.634 124.219 602.425 137.092C602.209 139.357 601.954 141.911 600.77 143.723C599.663 145.409 597.295 146.29 595.487 147.536C594.265 145.598 591.808 143.534 592.012 141.76C593.616 127.012 595.729 112.327 597.664 97.6172C597.906 95.7674 598.708 93.5653 598.033 92.0679C594.532 84.3164 598.644 77.924 601.317 71.2548C602.705 67.7943 605.149 67.0267 607.364 70.2229C610.216 74.3251 613.258 78.5783 614.798 83.2342C619.789 98.3345 624.129 113.661 628.725 128.887C629.298 130.775 629.947 132.625 631.818 134.361C632.455 127.818 633.053 121.274 633.753 114.731C636.147 92.2944 636.936 69.6567 643.161 47.7236C644.408 43.3194 644.383 38.588 645.414 34.1082C646.661 28.7099 650.455 27.4642 654.796 30.975C660.092 35.2659 662.676 41.1928 661.848 47.711C659.913 63.0629 657.316 78.3267 654.961 93.6282C654.643 95.6919 654.108 97.7304 653.828 99.7941C651.422 117.373 649.093 134.952 646.572 152.519C646.33 154.18 645.248 155.942 644.052 157.175C642.27 159 639.876 160.233 638.018 162.007C635.268 164.65 632.76 164.851 630.774 161.478C629.412 159.163 628.432 156.558 627.643 153.966C621.673 134.562 615.804 115.133 609.834 95.7423C609.439 94.4713 608.574 93.3388 607.924 92.156C607.364 92.2818 606.791 92.4076 606.231 92.5335L606.244 92.5209ZM648.736 57.5262C647.769 57.4255 646.814 57.3248 645.847 57.2241C644.319 71.3428 642.792 85.4615 641.251 99.5802C642.104 99.6683 642.944 99.7564 643.797 99.8445C646.254 85.8265 650.697 72.0098 648.736 57.5136V57.5262Z" fill="currentColor"/>
<path d="M256 138.428C261.579 115.094 258.119 92.6033 258.63 70.2514C258.847 60.4921 257.877 50.7076 257.583 40.9357C257.532 39.3112 258.464 37.6742 258.566 36.0246C259.383 22.6134 262.92 22.0467 276.39 19.2637C282.952 17.9037 289.757 21.9208 293.664 28.6075C299.014 37.7497 298.426 45.8972 291.838 53.5283C285.404 60.9958 286.067 60.5928 291.2 68.8158C296.371 77.1018 300.099 86.2818 304.261 95.1596C305.014 96.7841 304.912 98.8619 304.976 100.738C305.691 121.592 290.268 144.989 270.798 152.884C265.55 155.012 261.745 154.358 259.741 148.628C258.439 144.901 257.034 141.224 256 138.428ZM267.516 121.113C267.759 121.138 268.001 121.163 268.244 121.176C268.244 125.571 268.027 129.966 268.346 134.335C268.474 136.186 269.7 137.975 270.427 139.788C272.266 139.058 274.372 138.68 275.892 137.546C283.999 131.477 285.71 121.831 289.757 113.394C296.064 100.272 292.068 88.9011 284.446 78.2225C282.48 75.4773 278.624 73.3743 275.215 72.4551C270.402 71.158 268.704 73.8151 269.406 78.8018C270.07 83.5114 270.427 88.347 270.121 93.0944C269.534 102.451 268.397 111.769 267.491 121.1L267.516 121.113ZM270.415 56.4121C274.36 53.8557 278.433 52.1683 281.114 49.2342C283.884 46.1868 286.604 42.0312 286.885 38.1905C287.076 35.5712 283.539 31.8438 280.731 30.1564C279.033 29.1364 274.794 30.2571 272.955 31.8438C268.282 35.886 266.967 49.0579 270.415 56.4246V56.4121Z" fill="currentColor"/>
<path d="M468.567 92.063C470.488 89.4395 472.296 86.7147 474.356 84.2052C480.626 76.6009 486.87 68.9712 493.418 61.6204C495.15 59.6813 497.817 58.0083 500.32 57.4887C502.608 57.0071 506.337 57.4253 507.437 58.9335C508.625 60.5431 508.296 64.2946 507.209 66.3731C504.011 72.4946 500.219 78.3372 496.401 84.1038C495.175 85.9542 493.203 87.3357 491.446 88.7678C489.816 90.0859 487.856 90.9984 486.314 92.3926C476.303 101.467 475.822 107.918 485.467 116.828C492.508 123.329 500.535 128.729 507.841 134.951C509.75 136.574 510.635 139.413 512 141.694C509.447 142.138 506.615 143.532 504.403 142.86C492.71 139.273 483.053 132.29 474.331 123.811C472.662 122.189 470.21 121.39 468.112 120.212C467.265 122.645 465.862 125.028 465.659 127.525C464.635 140.059 464.003 152.619 463.043 165.153C462.79 168.487 461.513 171.693 457.203 170.869C452.779 170.02 452.842 166.471 453.095 162.923C454.713 139.831 456.482 116.739 457.822 93.6346C459.238 69.0219 460.237 44.3966 461.336 19.7712C461.425 17.7054 460.641 15.6142 460.73 13.5484C460.843 10.8995 460.78 7.89582 462.006 5.72859C463.321 3.40927 466.026 1.87573 468.124 0C468.921 2.56012 470.45 5.15827 470.374 7.69304C469.654 32.1029 468.718 56.5001 467.695 80.8974C467.543 84.3827 466.607 87.83 466.026 91.2899C466.873 91.5434 467.707 91.8096 468.554 92.063H468.567Z" fill="currentColor"/>
<path d="M93.6002 182.87C93.6002 194.36 93.7202 205.86 93.5302 217.35C93.4702 220.8 92.9202 224.36 91.8302 227.61C91.3102 229.15 88.9902 230.09 87.4802 231.3C86.4002 229.72 84.4302 228.17 84.3902 226.57C84.1702 217.42 84.4202 208.25 84.4902 199.09C84.5402 192.78 83.7302 192.16 77.9702 194.05C77.3402 194.26 76.7502 194.61 76.1102 194.75C68.7902 196.33 68.8802 196.33 68.6102 203.91C68.4902 207.37 68.3102 210.91 67.4302 214.22C66.5802 217.4 62.2302 218.88 59.8202 216.95C58.7802 216.12 57.8502 213.5 58.3802 212.62C62.4102 206.03 60.4402 199.01 60.3402 192.14C60.1302 178.35 59.7502 164.55 59.6902 150.76C59.6902 149.67 61.9902 147.49 62.6202 147.69C64.2002 148.2 66.3802 149.62 66.6202 150.97C67.5702 156.36 68.0002 161.86 68.3802 167.33C68.6802 171.65 68.6402 175.99 68.6802 180.32C68.7102 183.87 69.9102 185.75 73.8602 184.58C75.2702 184.16 76.9602 183.67 78.2602 184.06C84.1302 185.84 84.8102 182.62 84.4802 178.08C83.9202 170.46 82.9802 162.83 83.0202 155.21C83.0602 147.98 83.9702 140.73 84.9602 133.55C85.1502 132.21 87.5502 131.18 88.9302 130C89.8702 131.34 91.5402 132.64 91.6302 134.03C92.3802 145.63 92.9002 157.25 93.3502 168.88C93.5302 173.54 93.3802 178.21 93.3802 182.87C93.4502 182.87 93.5202 182.87 93.5902 182.87H93.6002Z" fill="currentColor"/>
<path d="M338.166 97.1054C335.779 109.691 333.353 120.513 331.757 131.462C330.3 141.472 329.81 151.609 328.741 161.683C328.503 163.954 328.188 166.517 326.97 168.306C325.637 170.26 323.237 171.465 321.289 173C320.121 170.513 317.746 167.874 318.022 165.553C318.839 158.473 320.85 151.533 322.081 144.492C324.092 133.086 326.228 121.68 327.535 110.186C328.113 105.124 326.668 99.8332 326.316 94.6314C326.09 91.1552 325.16 87.2729 326.291 84.2407C331.481 70.3609 339.712 58.3842 351.738 49.7062C355.784 46.7882 361.075 44.8978 366.026 44.1493C372.862 43.1216 376.833 47.486 377.16 54.6162C377.675 65.9331 366.856 80.6375 354.113 85.8392C352.203 86.6258 350.192 87.1714 346.9 88.2625C350.343 92.6269 352.919 97.2957 356.74 100.468C370.349 111.772 374.433 128.227 380.453 143.617C382.174 148.032 379.749 151.254 374.395 153.716C372.636 149.985 370.198 146.509 369.331 142.652C365.574 126.045 354 114.411 344.286 101.609C343.231 100.214 341.383 99.4145 338.154 97.0927L338.166 97.1054ZM340.755 79.1024C351.16 80.0793 366.039 69.5362 367.597 60.5411C367.886 58.8917 367.459 56.7476 366.529 55.4154C366.127 54.8445 363.437 55.3901 362.105 56.0752C352.429 60.947 345.668 68.6355 340.768 79.115L340.755 79.1024Z" fill="currentColor"/>
<path d="M936.048 204.434C938.175 217.167 940.282 229.899 942.449 242.611C942.891 245.206 944.797 248.585 943.794 250.174C941.747 253.392 938.476 256.892 935.085 257.737C933.158 258.22 928.021 253.936 927.68 251.341C925.111 231.79 923.145 212.158 921.459 192.506C920.456 180.88 919.733 169.154 920.094 157.507C920.235 152.941 922.703 147.671 925.753 144.131C932.255 136.568 939.54 129.609 947.005 122.971C956.577 114.463 982.364 120.557 986.879 132.445C988.063 135.542 987.521 139.787 986.537 143.126C982.464 156.823 973.815 167.062 961.895 174.866C949.694 182.851 950.256 183.676 957.42 196.147C964.885 209.141 970.985 222.919 977.828 236.275C985.293 250.818 992.819 265.32 1000.58 279.682C1002.65 283.504 1006.93 287.768 1000.93 290.302C997.394 291.791 991.053 290.785 988.043 288.351C984.17 285.193 982.263 279.541 979.695 274.855C972.591 262.001 965.427 249.168 958.624 236.154C954.771 228.793 951.781 220.968 948.008 213.566C945.961 209.563 943.051 205.983 940.523 202.222C939.038 202.946 937.573 203.69 936.088 204.414L936.048 204.434ZM967.373 133.953C955.473 134.134 934.904 156.864 935.988 165.996C936.188 167.725 939.098 170.501 940.643 170.441C948.249 170.119 970.564 149.703 971.206 142.019C971.447 139.083 968.336 135.884 967.353 133.953H967.373Z" fill="currentColor"/>
<path d="M804.013 209.462C803.444 175.499 821.107 155.213 839.707 136.329C847.175 128.74 858.937 124.935 869.254 120.549C872.693 119.088 877.76 120.91 881.973 121.771C887.101 122.832 892.453 123.834 897.093 126.096C901.183 128.099 904.398 131.804 908 134.747C904.48 136.429 901.04 138.372 897.377 139.674C895.587 140.314 893.165 140.294 891.354 139.674C872.632 133.366 860.036 144.139 850.614 156.595C838.038 173.216 825.564 190.418 821.473 211.825C820.13 218.834 821.799 223.179 827.965 225.382C837.102 228.626 846.422 231.65 855.905 233.652C864.574 235.495 871.086 231.61 876.967 224.781C880.65 220.496 886.877 216.811 892.453 215.97C899.311 214.929 902.119 221.096 897.54 226.383C890.113 234.994 882.746 243.945 873.955 251.114C852.669 268.456 817.241 262.108 808.368 238.899C804.339 228.346 804.929 216.07 804.054 209.422L804.013 209.462Z" fill="currentColor"/>
<path d="M0 153.49C2.87 149.39 4.84 146.32 7.11 143.48C7.84 142.57 9.26 142.02 10.47 141.72C20.73 139.24 31.03 136.86 41.3 134.43C44.06 133.78 46.78 133.37 47.86 136.85C49 140.55 46.2 141.34 43.57 142.13C40.4 143.07 37.26 144.15 34.04 144.88C30.18 145.76 28.98 147.96 29.51 151.77C31.73 167.72 33.65 183.71 36.05 199.63C36.97 205.77 38.91 211.75 40.33 217.82C40.99 220.62 40.53 222.58 37.04 223.16C29.4 224.43 27.83 222.78 27.12 215.16C25.87 201.63 23.8 188.18 22.24 174.68C21.65 169.57 21.85 164.36 21.06 159.3C19.98 152.44 18.58 151.83 12.03 154.06C10.31 154.65 8.63 155.52 6.85 155.78C3.48 156.29 0.58 155.56 0 153.49Z" fill="currentColor"/>
<path d="M1031.02 220.521C1036.45 194.127 1034.01 168.136 1047.04 145.475C1050.54 139.401 1054.11 133.226 1058.64 127.919C1068.4 116.478 1081.13 117.446 1088.64 130.744C1091.96 136.596 1094.45 144.204 1093.93 150.742C1091.4 182.504 1088.06 214.205 1072.06 242.92C1067.7 250.749 1063.4 260.939 1054.56 259.931C1048.77 259.265 1042.82 250.043 1039.12 243.424C1034.96 236.018 1033.25 227.22 1031 220.541L1031.02 220.521ZM1053.43 232.083C1075.72 210.815 1082.84 173.786 1070.96 148.421C1070.07 146.545 1067.28 145.596 1065.39 144.204C1064.47 146.867 1062.05 150.197 1062.88 152.094C1066.25 159.863 1062.64 165.573 1058.92 171.647C1049.65 186.782 1046.86 203.389 1048.73 220.803C1049.09 224.294 1051.5 227.563 1053.47 232.083H1053.43Z" fill="currentColor"/>
<path d="M387.083 116.863C386.137 100.224 393.351 86.2081 405.749 74.4169C415.347 65.2986 427.506 67.9586 432.374 80.3892C436.625 91.2724 435.225 102.219 431.655 112.796C429.372 119.574 426.081 126.07 422.6 132.324C417.693 141.161 411.614 143.552 402.684 141.084C390.64 137.746 387.512 134.127 387.095 122.95C387.032 121.249 387.095 119.548 387.095 116.85L387.083 116.863ZM423.672 96.9633C423.268 93.3953 423.457 90.0063 422.36 87.1288C421.528 84.9676 419.156 82.2564 417.214 82.0262C415.373 81.8087 412.888 84.2258 411.274 86.029C409.647 87.8578 409.104 90.6841 407.452 92.4873C399.393 101.388 397.602 112.092 399.039 123.423C399.38 126.147 402.18 129.472 404.69 130.649C406.393 131.442 410.87 129.677 411.904 127.81C417.315 118.065 423.268 108.371 423.659 96.9761L423.672 96.9633Z" fill="currentColor"/>
<path d="M540.988 111.549C544.472 121.108 552.29 123.473 559.575 117.888C561.711 116.253 563.846 114.178 566.313 113.549C568.283 113.046 570.762 114.417 573 114.958C572.288 116.932 572.11 119.385 570.788 120.794C563.77 128.34 550.917 132.05 544.179 128.843C533.182 123.598 526.61 111.725 528.25 99.9907C528.631 97.2991 529.228 94.6327 529.495 91.9412C531.097 75.8422 542.463 69.3901 558.99 67.0884C567.648 65.881 573.369 77.276 568.614 86.8725C562.918 98.3682 556.066 109.336 540.975 111.549H540.988ZM539.119 98.4562C546.735 97.2614 549.811 92.5072 551.744 86.7845C552.112 85.7028 551.616 83.615 550.79 83.0616C549.913 82.483 547.917 82.7597 546.836 83.376C541.179 86.6587 539.78 92.0418 539.107 98.4562H539.119Z" fill="currentColor"/>
<path d="M119.26 193.77C122.51 197.53 128.47 197.96 132.55 194.41C133.93 193.21 135.13 191.77 136.6 190.71C138.73 189.17 141.08 188.06 143.03 190.98C144.82 193.66 145.65 196.4 142.85 199.05C137.27 204.33 124.42 206.65 117.44 203.61C113.15 201.74 107.79 193.6 108.79 188.82C110.37 181.26 112.4 173.71 115.08 166.47C117.21 160.72 122.76 158.29 128.83 159.03C131.94 159.41 135.17 159.36 138.15 160.19C140.53 160.85 143.11 162.12 144.69 163.92C146.44 165.91 145.92 168.15 143.42 170.26C137.61 175.17 132.16 180.51 126.68 185.8C124.08 188.31 121.74 191.09 119.26 193.77ZM119.37 181.78C122.19 178.56 124.24 176.21 126.31 173.87C127.19 172.87 128.51 172.06 128.92 170.91C129.34 169.74 129.31 167.97 128.67 167C128.21 166.32 126.23 166.08 125.22 166.45C120.62 168.15 117.63 174.81 119.38 181.78H119.37Z" fill="currentColor"/>
</svg>